<?xml version="1.0" standalone="no"?>
<!DOCTYPE svg PUBLIC "-//W3C//DTD SVG 20010904//EN"
 "http://www.w3.org/TR/2001/REC-SVG-20010904/DTD/svg10.dtd">
<svg version="1.0" xmlns="http://www.w3.org/2000/svg"
 width="623.000000pt" height="354.000000pt" viewBox="0 0 623.000000 354.000000"
 preserveAspectRatio="xMidYMid meet">

<g transform="translate(0.000000,354.000000) scale(0.100000,-0.100000)"
fill="#000000" stroke="none">
<path d="M4650 3498 c0 -8 10 -14 25 -13 33 0 33 19 0 23 -16 2 -25 -2 -25
-10z"/>
<path d="M4763 3496 c5 -16 27 -19 27 -3 0 7 -7 14 -15 14 -9 0 -14 -5 -12
-11z"/>
<path d="M4880 3495 c0 -8 4 -15 10 -15 5 0 7 7 4 15 -4 8 -8 15 -10 15 -2 0
-4 -7 -4 -15z"/>
<path d="M4990 3500 l-25 -7 28 -8 c30 -8 47 0 31 14 -5 4 -20 5 -34 1z"/>
<path d="M5120 3500 l-25 -6 23 -8 c24 -8 37 -3 31 12 -2 4 -15 5 -29 2z"/>
<path d="M5180 3500 c-8 -5 -11 -12 -7 -17 5 -4 12 -1 16 6 7 11 10 11 14 0 4
-10 6 -9 6 4 1 19 -7 21 -29 7z"/>
<path d="M5265 3501 c-7 -7 6 -21 20 -21 7 0 15 6 18 13 4 12 -28 19 -38 8z"/>
<path d="M5320 3495 c0 -6 13 -12 28 -13 18 -1 29 3 29 11 0 8 -12 14 -29 14
-15 0 -28 -5 -28 -12z"/>
<path d="M5472 3501 c-11 -7 -10 -10 3 -15 25 -9 32 -7 32 9 0 17 -15 19 -35
6z"/>
<path d="M4651 3434 c0 -11 3 -14 6 -6 3 7 2 16 -1 19 -3 4 -6 -2 -5 -13z"/>
<path d="M4686 3441 c-4 -7 -5 -15 -2 -18 9 -9 19 4 14 18 -4 11 -6 11 -12 0z"/>
<path d="M4746 3442 c-12 -20 13 -30 74 -28 50 1 65 5 68 17 2 13 -7 15 -50
15 -29 -1 -56 -5 -60 -11 -5 -6 -8 -5 -8 3 0 13 -16 16 -24 4z"/>
<path d="M4940 3435 c0 -8 2 -15 4 -15 2 0 6 7 10 15 3 8 1 15 -4 15 -6 0 -10
-7 -10 -15z"/>
<path d="M161 3424 c0 -11 3 -14 6 -6 3 7 2 16 -1 19 -3 4 -6 -2 -5 -13z"/>
<path d="M190 3424 c0 -8 5 -12 10 -9 6 3 10 10 10 16 0 5 -4 9 -10 9 -5 0
-10 -7 -10 -16z"/>
<path d="M250 3424 c0 -8 5 -12 10 -9 6 3 10 10 10 16 0 5 -4 9 -10 9 -5 0
-10 -7 -10 -16z"/>
<path d="M280 3431 c0 -6 5 -13 10 -16 6 -3 10 1 10 9 0 9 -4 16 -10 16 -5 0
-10 -4 -10 -9z"/>
<path d="M350 3423 c0 -9 15 -13 45 -13 30 0 45 4 45 13 0 8 -15 13 -45 13
-30 0 -45 -5 -45 -13z"/>
<path d="M965 3431 c-6 -11 13 -26 22 -17 4 3 1 6 -6 6 -7 0 -9 5 -6 10 3 6 4
10 1 10 -3 0 -7 -4 -11 -9z"/>
<path d="M1067 3434 c-14 -14 -7 -24 19 -24 14 0 23 4 19 10 -4 6 -10 8 -15 5
-4 -3 -10 0 -12 6 -2 5 -7 7 -11 3z"/>
<path d="M1182 3428 c6 -18 25 -21 25 -3 0 8 -7 15 -14 15 -8 0 -13 -5 -11
-12z"/>
<path d="M1226 3425 c4 -8 10 -15 15 -15 4 0 6 7 3 15 -4 8 -10 15 -15 15 -4
0 -6 -7 -3 -15z"/>
<path d="M1303 3425 c-9 -10 -4 -13 26 -13 24 -1 38 4 38 12 0 17 -49 18 -64
1z"/>
<path d="M1385 3431 c-6 -11 9 -23 19 -14 9 9 7 23 -3 23 -6 0 -12 -4 -16 -9z"/>
<path d="M1450 3424 c0 -7 17 -12 45 -12 32 -1 45 3 45 12 0 10 -13 14 -45 13
-28 0 -45 -5 -45 -13z"/>
<path d="M1580 3425 c0 -9 9 -15 25 -15 16 0 25 6 25 15 0 18 -16 20 -23 3 -4
-10 -6 -10 -6 0 -1 17 -21 15 -21 -3z"/>
<path d="M1650 3429 c0 -5 5 -7 10 -4 6 3 10 8 10 11 0 2 -4 4 -10 4 -5 0 -10
-5 -10 -11z"/>
<path d="M1780 3427 c0 -7 9 -13 20 -14 11 -1 20 4 20 13 0 8 -9 14 -20 14
-11 0 -20 -6 -20 -13z"/>
<path d="M1840 3425 c0 -8 4 -15 10 -15 5 0 7 7 4 15 -4 8 -8 15 -10 15 -2 0
-4 -7 -4 -15z"/>
<path d="M1907 3434 c-11 -12 3 -24 29 -24 15 0 24 6 24 15 0 8 -7 15 -15 15
-8 0 -15 -4 -15 -10 0 -5 -5 -10 -11 -10 -5 0 -7 5 -4 10 7 11 2 13 -8 4z"/>
<path d="M3040 3425 c0 -8 5 -15 10 -15 6 0 10 7 10 15 0 8 -4 15 -10 15 -5 0
-10 -7 -10 -15z"/>
<path d="M3110 3426 c0 -9 5 -16 10 -16 6 0 10 4 10 9 0 6 -4 13 -10 16 -5 3
-10 -1 -10 -9z"/>
<path d="M3205 3431 c-14 -13 0 -21 37 -21 34 0 40 3 30 13 -13 12 -58 18 -67
8z"/>
<path d="M3300 3425 c0 -8 4 -15 8 -15 5 0 9 7 9 15 0 8 -4 15 -9 15 -4 0 -8
-7 -8 -15z"/>
<path d="M3363 3427 c5 -17 37 -21 37 -5 0 8 -9 14 -21 15 -12 1 -19 -3 -16
-10z"/>
<path d="M3416 3425 c4 -9 13 -15 21 -13 23 5 20 23 -4 26 -18 3 -21 0 -17
-13z"/>
<path d="M5150 3425 c0 -13 12 -15 60 -13 41 1 60 6 60 15 0 8 -12 13 -30 13
-16 0 -30 -4 -30 -10 0 -5 -5 -10 -11 -10 -5 0 -7 5 -4 10 4 6 -5 10 -19 10
-17 0 -26 -6 -26 -15z"/>
<path d="M5520 3427 c0 -19 42 -30 52 -14 12 18 10 27 -7 27 -8 0 -15 -5 -15
-11 0 -8 -5 -8 -15 1 -12 10 -15 10 -15 -3z"/>
<path d="M5606 3421 c10 -10 21 -17 23 -15 6 6 -20 34 -32 34 -6 0 -2 -8 9
-19z"/>
<path d="M5915 3431 c-3 -5 -2 -12 3 -15 5 -3 9 1 9 9 0 17 -3 19 -12 6z"/>
<path d="M5942 3428 c3 -7 19 -14 36 -15 23 -1 29 2 25 13 -6 16 -33 19 -33 4
0 -5 -5 -10 -11 -10 -5 0 -7 5 -4 10 3 6 1 10 -5 10 -7 0 -10 -6 -8 -12z"/>
<path d="M6050 3425 c0 -10 9 -15 27 -15 29 0 29 2 -4 19 -19 10 -23 9 -23 -4z"/>
<path d="M3075 3420 c3 -5 8 -10 11 -10 2 0 4 5 4 10 0 6 -5 10 -11 10 -5 0
-7 -4 -4 -10z"/>
<path d="M175 3298 c-7 -24 -115 -490 -115 -499 0 -5 25 -9 55 -9 51 0 55 2
61 28 3 15 7 33 10 40 2 8 24 12 63 12 58 0 61 -1 67 -27 11 -53 12 -53 68
-53 30 0 57 3 59 8 6 8 -105 481 -117 500 -10 17 -145 16 -151 0z m85 -151 c1
-18 7 -61 15 -97 22 -98 21 -100 -23 -100 -21 0 -41 2 -44 5 -2 3 3 42 13 88
10 45 19 97 19 115 0 43 20 32 20 -11z"/>
<path d="M460 3290 c0 -25 80 -482 86 -492 3 -4 34 -8 69 -8 61 0 64 1 69 28
5 28 19 132 32 237 7 60 7 60 26 -80 26 -203 17 -185 93 -185 35 0 66 4 69 8
10 16 87 493 81 502 -8 14 -92 13 -101 -1 -9 -15 -43 -261 -45 -324 -1 -45 -2
-47 -9 -20 -5 17 -16 93 -26 170 -22 185 -22 185 -79 185 -30 0 -47 -5 -51
-14 -3 -8 -16 -95 -28 -193 -21 -163 -23 -173 -29 -123 -26 208 -41 307 -50
318 -5 6 -31 12 -58 12 -42 0 -49 -3 -49 -20z"/>
<path d="M1115 3298 c-7 -20 -115 -490 -115 -499 0 -5 25 -9 55 -9 51 0 55 2
61 28 3 15 7 33 10 40 2 8 24 12 63 12 58 0 61 -1 67 -27 11 -53 12 -53 68
-53 30 0 57 3 59 8 6 8 -105 481 -117 500 -10 17 -145 16 -151 0z m85 -151 c1
-18 7 -61 15 -97 22 -101 22 -102 -27 -98 -32 2 -42 7 -40 18 2 8 11 61 20
117 16 97 32 126 32 60z"/>
<path d="M1428 3304 c-5 -4 -8 -121 -8 -261 l0 -253 55 0 55 0 0 105 0 105 35
0 c41 0 48 -12 60 -104 12 -102 15 -106 86 -106 59 0 61 1 54 23 -4 12 -15 60
-25 107 -14 66 -24 90 -45 107 l-26 23 24 9 c38 15 57 50 57 106 0 107 -42
136 -203 142 -62 3 -115 2 -119 -3z m206 -127 c17 -46 -10 -82 -59 -82 l-40 0
-3 58 -3 58 48 -3 c42 -3 49 -6 57 -31z"/>
<path d="M1805 3299 c-3 -8 -4 -125 -3 -259 l3 -245 100 0 c116 0 142 6 184
41 41 34 61 105 61 214 0 136 -27 203 -98 239 -13 7 -72 15 -132 18 -89 5
-111 3 -115 -8z m201 -103 c17 -13 19 -29 22 -133 3 -146 -5 -167 -66 -171
l-42 -3 0 160 0 161 33 0 c18 0 42 -6 53 -14z"/>
<path d="M2253 3290 c-45 -27 -65 -62 -65 -113 0 -66 25 -103 94 -145 67 -40
128 -94 128 -111 0 -18 -39 -51 -60 -51 -30 0 -60 36 -60 71 0 28 -3 31 -22
25 -13 -3 -38 -6 -55 -6 -31 0 -33 -3 -33 -33 0 -18 8 -48 19 -67 27 -51 70
-72 145 -73 118 -1 181 58 173 161 -4 63 -38 103 -120 147 -29 15 -62 37 -74
48 -31 28 -30 64 2 79 32 15 75 -12 75 -47 0 -32 9 -36 65 -28 l47 6 -6 39
c-14 84 -60 118 -158 118 -45 0 -72 -6 -95 -20z"/>
<path d="M209 2692 c-38 -34 -47 -94 -26 -164 l15 -47 -44 -36 c-24 -20 -51
-50 -59 -65 -19 -37 -19 -93 0 -130 32 -63 132 -80 199 -35 l36 24 36 -24 c40
-27 56 -30 85 -15 23 13 51 66 46 88 -2 12 -9 5 -20 -20 -13 -32 -21 -38 -45
-38 -17 0 -40 9 -53 19 l-24 19 21 39 c12 21 29 62 39 91 14 45 21 54 46 59
45 9 25 18 -42 19 -59 1 -78 -9 -38 -19 18 -5 21 -11 16 -37 -8 -39 -47 -130
-56 -130 -4 0 -29 40 -55 89 l-47 90 45 41 c74 69 94 134 55 184 -29 37 -87
36 -130 -2z m109 -4 c31 -31 -2 -120 -61 -169 -30 -24 -38 -12 -44 63 -4 54
-2 67 17 91 23 29 66 37 88 15z m-98 -261 c0 -7 21 -48 46 -92 l47 -79 -23
-18 c-84 -68 -186 -2 -166 107 11 59 96 131 96 82z"/>
<path d="M1561 2697 c-6 -14 -40 -122 -77 -239 -49 -160 -72 -219 -91 -235
l-24 -23 63 1 c42 1 55 3 38 8 -32 9 -34 23 -12 96 l18 60 89 0 88 0 19 -55
c23 -68 20 -92 -12 -101 -15 -4 4 -7 50 -8 74 -1 75 0 52 17 -18 14 -41 74
-98 253 -42 128 -79 238 -84 243 -6 6 -13 -1 -19 -17z m43 -171 c20 -63 36
-119 36 -125 0 -7 -27 -11 -75 -11 -41 0 -75 3 -75 8 0 9 73 242 76 242 1 0
18 -51 38 -114z"/>
<path d="M3434 2709 c-43 -12 -66 -41 -71 -92 -7 -61 13 -94 100 -166 41 -33
81 -71 90 -85 26 -39 22 -102 -8 -131 -60 -61 -149 -4 -170 108 -12 62 -25 31
-25 -59 0 -79 11 -110 23 -64 5 20 6 20 43 -5 67 -45 145 -30 179 35 36 69 6
145 -84 214 -85 66 -111 100 -111 147 0 51 27 79 76 79 46 0 91 -46 100 -101
10 -60 28 -48 20 14 -3 28 -6 66 -6 82 -1 27 -2 28 -14 13 -12 -16 -15 -16
-52 2 -42 22 -45 22 -90 9z"/>
<path d="M670 2701 c0 -5 12 -11 28 -13 l27 -3 3 -232 2 -232 -32 -10 c-27 -7
-16 -9 57 -9 72 0 84 2 58 9 -40 12 -45 28 -41 139 l3 85 65 0 65 0 11 -35
c11 -33 12 -31 15 43 2 44 1 81 -3 84 -5 2 -8 -6 -8 -19 0 -38 -19 -48 -87
-48 l-63 0 0 98 c0 53 4 103 8 110 6 9 33 12 98 10 l89 -3 10 -42 c16 -65 29
-65 21 1 -4 32 -9 63 -12 67 -7 12 -314 12 -314 0z"/>
<path d="M1020 2702 c0 -5 14 -12 30 -15 l30 -6 0 -225 c0 -234 -1 -238 -45
-249 -11 -2 50 -5 136 -6 l156 -1 16 60 c20 69 20 70 9 70 -5 0 -14 -17 -20
-38 -19 -63 -38 -73 -128 -70 l-79 3 -3 113 -3 113 68 -3 68 -3 3 -32 c6 -65
22 -31 22 47 0 47 -4 80 -10 80 -5 0 -10 -11 -10 -24 0 -36 -22 -47 -82 -44
l-53 3 0 100 0 100 78 3 c91 3 104 -4 113 -60 4 -23 10 -36 16 -30 4 4 5 33 1
63 l-8 54 -153 3 c-85 1 -152 -1 -152 -6z"/>
<path d="M1807 2703 c-11 -18 -19 -126 -10 -120 6 4 13 21 17 38 9 49 23 59
77 59 l49 0 0 -230 0 -229 -32 -10 c-27 -7 -16 -9 57 -10 82 0 87 1 55 12
l-35 12 0 225 0 225 52 3 c57 3 60 1 80 -73 7 -29 8 -28 11 14 7 94 13 91
-163 91 -84 0 -156 -3 -158 -7z"/>
<path d="M2150 2701 c0 -5 12 -11 28 -13 l27 -3 5 -195 c4 -155 8 -201 22
-225 30 -55 54 -69 126 -73 57 -3 71 -1 95 18 56 44 61 68 67 280 l5 195 28 3
c57 7 24 22 -48 22 -72 0 -105 -15 -47 -22 l27 -3 3 -193 c3 -214 -3 -238 -60
-268 -40 -21 -102 -13 -134 17 -36 34 -44 79 -44 260 0 175 3 189 48 189 13 0
20 4 17 10 -8 13 -165 13 -165 1z"/>
<path d="M2600 2701 c0 -5 14 -11 30 -14 l30 -6 0 -225 c0 -234 -1 -238 -45
-249 -11 -2 21 -5 70 -5 82 -1 87 0 55 11 l-35 12 -3 108 -3 108 28 -3 c24 -3
35 -17 85 -112 31 -60 63 -113 70 -117 7 -5 29 -9 48 -9 l35 0 -32 20 c-23 14
-45 44 -74 102 -23 46 -48 91 -56 100 -13 15 -10 18 30 36 59 26 81 67 75 134
-6 63 -35 94 -100 107 -59 13 -208 14 -208 2z m235 -45 c45 -46 45 -124 -1
-166 -19 -19 -36 -24 -77 -25 l-52 0 -3 94 c-1 52 -1 100 2 108 4 8 23 13 56
13 40 0 56 -5 75 -24z"/>
<path d="M2970 2700 c0 -5 11 -10 25 -10 14 0 29 -8 35 -19 12 -23 14 -420 1
-439 -4 -7 -21 -17 -37 -22 -20 -5 22 -9 128 -9 l157 -1 16 52 c25 86 12 110
-15 25 -15 -49 -33 -57 -124 -57 l-76 0 0 115 0 116 63 -3 c61 -3 62 -4 74
-38 11 -32 12 -28 11 50 0 74 -1 81 -11 52 -6 -20 -18 -34 -32 -38 -29 -7
-105 -1 -105 9 0 4 0 50 0 102 l0 95 85 0 c92 0 105 -8 105 -64 0 -14 5 -28
12 -32 8 -5 10 8 5 49 -3 31 -8 61 -12 67 -8 13 -305 14 -305 0z"/>
<path d="M4540 1609 c0 -7 24 -9 70 -7 96 6 100 18 7 18 -49 0 -77 -4 -77 -11z"/>
<path d="M95 1579 c-4 -6 -5 -12 -2 -15 2 -3 7 2 10 11 7 17 1 20 -8 4z"/>
<path d="M127 1576 c-5 -12 0 -16 23 -16 17 0 30 4 30 9 0 16 -18 22 -23 9 -4
-10 -7 -10 -15 0 -7 11 -10 11 -15 -2z"/>
<path d="M550 1575 c0 -8 9 -13 20 -12 11 1 20 4 20 8 0 4 -9 9 -20 12 -13 3
-20 0 -20 -8z"/>
<path d="M614 1579 c-3 -6 -2 -15 3 -20 5 -5 9 -1 9 11 0 23 -2 24 -12 9z"/>
<path d="M645 1579 c-4 -6 -5 -12 -2 -15 2 -3 7 2 10 11 7 17 1 20 -8 4z"/>
<path d="M752 1570 c0 -14 2 -19 5 -12 2 6 2 18 0 25 -3 6 -5 1 -5 -13z"/>
<path d="M857 1573 c6 -14 43 -18 43 -4 0 5 -11 11 -24 13 -17 4 -23 1 -19 -9z"/>
<path d="M2080 1576 c0 -6 9 -12 20 -12 11 0 20 3 20 7 0 4 -9 9 -20 12 -12 3
-20 0 -20 -7z"/>
<path d="M2146 1575 c-3 -9 0 -15 9 -15 9 0 12 6 9 15 -4 8 -7 15 -9 15 -2 0
-5 -7 -9 -15z"/>
<path d="M2211 1574 c0 -11 3 -14 6 -6 3 7 2 16 -1 19 -3 4 -6 -2 -5 -13z"/>
<path d="M2257 1573 c6 -15 73 -18 73 -3 0 6 -8 10 -17 11 -10 0 -28 2 -40 3
-14 2 -19 -2 -16 -11z"/>
<path d="M3118 1582 c-21 -2 -38 -6 -38 -10 0 -12 54 -11 69 1 12 10 13 9 7
-8 -6 -16 -5 -18 5 -7 19 18 0 28 -43 24z"/>
<path d="M3244 1579 c-3 -6 -2 -15 3 -20 5 -5 9 -1 9 11 0 23 -2 24 -12 9z"/>
<path d="M4530 1580 c0 -5 6 -10 13 -11 6 0 37 -2 67 -4 65 -4 112 3 104 16
-7 12 -184 12 -184 -1z"/>
<path d="M700 1570 c0 -5 9 -10 21 -10 11 0 17 5 14 10 -3 6 -13 10 -21 10 -8
0 -14 -4 -14 -10z"/>
<path d="M3190 1576 c0 -2 7 -9 15 -16 12 -10 15 -10 15 4 0 9 -7 16 -15 16
-8 0 -15 -2 -15 -4z"/>
<path d="M5068 1514 c-30 -16 -48 -43 -48 -71 0 -21 56 -80 66 -71 3 4 -8 16
-25 29 -40 29 -40 60 0 93 42 36 45 35 92 -22 15 -19 27 -28 27 -22 0 14 -64
80 -76 80 -5 -1 -21 -7 -36 -16z"/>
<path d="M4573 1396 l-43 -54 0 -127 c0 -95 4 -133 16 -157 11 -22 13 -33 5
-41 -6 -6 -11 -37 -11 -69 0 -50 3 -60 25 -74 13 -9 44 -18 67 -20 l43 -3 -42
9 c-76 16 -83 23 -83 91 0 41 4 61 14 65 11 4 10 12 -5 42 -16 30 -19 59 -19
163 0 70 4 129 8 131 4 2 23 22 42 46 30 38 38 42 76 42 23 0 45 -5 47 -10 3
-6 4 -5 3 2 -2 8 -22 14 -52 16 -49 3 -49 2 -91 -52z"/>
<path d="M4781 1399 c-41 -51 -41 -52 -41 -138 0 -59 -3 -81 -10 -71 -8 13
-10 13 -10 -1 0 -9 7 -22 15 -29 13 -11 15 0 15 89 0 55 3 101 8 101 4 0 21
20 37 45 28 42 33 45 77 45 46 0 47 -1 51 -35 l4 -35 -1 37 -1 38 -51 3 c-51
3 -52 3 -93 -49z"/>
<path d="M5154 1416 c-3 -9 -18 -23 -33 -31 -14 -8 -21 -14 -14 -15 17 0 69
47 61 56 -4 4 -10 -1 -14 -10z"/>
<path d="M4714 1310 c0 -58 1 -81 3 -52 2 28 2 76 0 105 -2 28 -3 5 -3 -53z"/>
<path d="M62 1328 c0 -18 4 -28 14 -28 8 0 14 8 14 18 0 14 2 15 10 2 14 -23
71 -22 77 1 3 10 12 19 21 19 12 0 13 -3 4 -12 -16 -16 -15 -28 3 -28 8 0 16
7 17 15 0 8 1 21 2 28 1 8 -22 12 -80 13 l-81 0 -1 -28z m98 8 c0 -3 -4 -8
-10 -11 -5 -3 -10 -1 -10 4 0 6 5 11 10 11 6 0 10 -2 10 -4z"/>
<path d="M540 1341 c0 -26 20 -38 55 -32 40 8 48 49 9 49 -17 0 -29 -8 -34
-22 -9 -21 -9 -21 -9 2 -1 27 -21 30 -21 3z"/>
<path d="M675 1352 c-9 -9 -6 -40 5 -47 6 -4 17 -2 25 5 8 6 16 7 19 2 3 -5
20 -9 38 -7 27 2 34 7 36 29 4 32 -27 37 -35 6 -3 -11 -9 -20 -15 -20 -5 0 -4
8 2 19 9 18 7 20 -29 19 -22 0 -42 -3 -46 -6z"/>
<path d="M814 1333 c4 -38 25 -41 24 -4 -1 18 -6 31 -14 31 -8 0 -12 -10 -10
-27z"/>
<path d="M854 1346 c-12 -31 3 -46 38 -39 40 7 35 4 40 27 2 16 -4 20 -35 23
-27 3 -39 0 -43 -11z"/>
<path d="M986 1344 c-12 -32 -5 -35 77 -33 45 0 89 -2 98 -5 23 -10 45 19 30
38 -14 17 -81 19 -81 3 0 -8 -3 -8 -8 -2 -10 15 -75 16 -84 2 -6 -9 -8 -9 -8
1 0 17 -17 15 -24 -4z"/>
<path d="M2073 1343 c-10 -26 15 -40 70 -38 47 2 52 4 55 27 3 24 1 24 -58 24
-43 0 -64 -4 -67 -13z m42 -13 c-3 -5 -10 -10 -16 -10 -5 0 -9 5 -9 10 0 6 7
10 16 10 8 0 12 -4 9 -10z"/>
<path d="M2252 1332 c3 -25 5 -26 81 -27 l77 -1 0 28 c0 17 -5 28 -14 28 -10
0 -12 -7 -8 -22 3 -14 2 -19 -6 -14 -7 4 -12 14 -12 22 0 9 -7 14 -17 12 -11
-2 -17 -11 -15 -21 2 -9 -2 -17 -9 -17 -6 0 -9 8 -6 19 4 15 -1 18 -35 18 -36
0 -39 -2 -36 -25z"/>
<path d="M2427 1353 c-11 -10 -8 -41 4 -45 6 -2 26 -2 45 0 27 3 34 9 34 26 0
17 -7 21 -38 24 -21 1 -41 -1 -45 -5z"/>
<path d="M2560 1349 c0 -4 -3 -15 -6 -24 -6 -14 3 -16 77 -15 46 1 91 -1 100
-5 10 -3 20 -1 24 5 5 8 10 8 20 0 19 -16 35 -4 35 24 0 21 -4 22 -65 23 -43
1 -65 -3 -65 -10 0 -9 -2 -9 -8 -1 -8 12 -112 15 -112 3z"/>
<path d="M3076 1343 c-3 -3 -2 -11 1 -19 4 -11 22 -14 79 -12 63 3 74 6 74 21
0 16 -9 18 -75 16 -41 -1 -76 -4 -79 -6z"/>
<path d="M3270 1330 c0 -17 11 -18 157 -18 87 0 161 2 165 4 4 3 5 11 2 18 -4
10 -41 14 -165 14 -149 1 -159 0 -159 -18z"/>
<path d="M4923 1290 c0 -36 2 -50 4 -32 2 17 2 47 0 65 -2 17 -4 3 -4 -33z"/>
<path d="M5562 1333 c2 -9 8 -18 15 -20 7 -3 9 3 6 16 -6 25 -26 28 -21 4z"/>
<path d="M5600 1331 c0 -17 7 -19 45 -18 36 1 45 5 45 19 0 15 -8 18 -45 18
-38 0 -45 -3 -45 -19z"/>
<path d="M5002 1321 c15 -3 37 -14 48 -23 11 -10 25 -18 30 -18 6 0 10 -6 11
-12 0 -7 5 2 10 20 8 25 15 32 34 32 14 0 25 -4 25 -10 0 -5 7 -10 15 -10 8 0
15 -4 15 -10 0 -5 5 -10 10 -10 19 0 10 16 -19 33 -38 22 -67 22 -84 -3 -13
-19 -13 -19 -45 0 -18 11 -42 19 -55 19 -19 -1 -18 -2 5 -8z"/>
<path d="M4950 1305 c0 -19 31 -97 37 -91 2 2 -3 20 -11 40 -8 20 -13 43 -10
51 4 8 1 15 -5 15 -6 0 -11 -7 -11 -15z"/>
<path d="M5234 1265 c8 -8 19 -15 25 -15 16 0 14 -22 -14 -119 l-26 -89 31
-78 c30 -74 30 -79 14 -91 -24 -17 -34 -16 -64 7 -14 11 -28 20 -31 20 -4 0
-12 -20 -18 -43 -9 -37 -17 -46 -51 -62 -32 -15 -45 -16 -65 -7 -14 6 -25 8
-25 3 0 -32 -175 -49 -237 -22 -29 12 -33 18 -33 50 0 37 -1 37 -32 32 -32 -5
-32 -6 -5 -9 22 -3 27 -8 27 -32 0 -23 7 -33 33 -47 43 -23 179 -24 222 -1 17
9 42 14 55 11 14 -2 42 3 64 12 29 12 42 26 53 55 15 37 17 38 37 25 27 -20
49 -19 77 3 l22 19 -31 79 -32 79 29 98 29 97 -28 20 c-33 24 -48 26 -26 5z"/>
<path d="M4922 1200 c0 -14 2 -19 5 -12 2 6 2 18 0 25 -3 6 -5 1 -5 -13z"/>
<path d="M4963 1178 c-41 -46 -53 -73 -53 -117 0 -35 -3 -42 -12 -33 -7 7 -20
12 -30 12 -26 0 -22 14 17 66 19 25 35 51 35 57 0 13 -55 -50 -82 -94 l-16
-26 38 -12 c52 -15 64 -33 58 -85 -5 -40 -3 -45 18 -49 18 -3 25 2 34 26 8 25
7 32 -8 43 -9 7 -19 10 -22 8 -2 -3 2 -9 9 -13 16 -10 11 -43 -8 -49 -11 -4
-13 5 -9 42 3 25 2 49 -3 52 -13 7 -11 81 2 107 6 12 25 37 42 55 17 17 26 32
21 32 -6 0 -20 -10 -31 -22z"/>
<path d="M5126 1157 c3 -10 9 -15 12 -12 3 3 0 11 -7 18 -10 9 -11 8 -5 -6z"/>
<path d="M67 1103 c-4 -3 7 -15 24 -25 34 -21 54 -13 43 15 -7 19 -20 22 -29
7 -5 -8 -11 -8 -19 -1 -7 6 -16 8 -19 4z m63 -23 c0 -5 -4 -10 -10 -10 -5 0
-10 5 -10 10 0 6 5 10 10 10 6 0 10 -4 10 -10z"/>
<path d="M158 1098 c8 -8 9 -15 1 -25 -7 -8 -8 -13 -1 -13 12 0 24 29 16 41
-3 5 -10 9 -17 9 -8 0 -8 -3 1 -12z"/>
<path d="M204 1101 c4 -6 2 -18 -4 -26 -10 -12 -9 -15 4 -15 18 0 22 35 4 46
-7 4 -8 3 -4 -5z"/>
<path d="M600 1100 c0 -5 5 -10 10 -10 6 0 10 5 10 10 0 6 -4 10 -10 10 -5 0
-10 -4 -10 -10z"/>
<path d="M680 1087 c0 -19 5 -24 29 -24 23 0 30 6 34 24 5 29 0 29 -30 1 -13
-12 -23 -16 -23 -10 0 7 5 12 11 12 5 0 7 5 4 10 -11 18 -25 11 -25 -13z"/>
<path d="M779 1110 c-8 -21 -4 -50 7 -50 8 0 14 3 13 8 -1 12 -17 47 -20 42z"/>
<path d="M820 1085 c0 -14 4 -25 9 -25 4 0 6 11 3 25 -2 14 -6 25 -8 25 -2 0
-4 -11 -4 -25z"/>
<path d="M853 1094 c-9 -24 13 -41 36 -27 14 9 21 9 30 0 8 -8 11 -6 11 10 0
24 -35 27 -50 3 -5 -8 -12 -11 -16 -7 -4 3 -1 13 6 22 9 11 9 15 1 15 -6 0
-14 -7 -18 -16z"/>
<path d="M990 1103 c0 -6 -3 -18 -6 -26 -4 -12 8 -14 72 -12 49 1 80 7 82 14
3 8 9 6 17 -6 11 -14 16 -15 26 -6 6 6 9 18 6 26 -8 22 -69 15 -77 -9 -6 -17
-8 -16 -15 6 l-8 25 -10 -25 c-8 -21 -11 -22 -14 -7 -5 20 -29 23 -36 5 -3 -9
-10 -7 -21 7 -8 11 -16 15 -16 8z m190 -23 c0 -5 -4 -10 -10 -10 -5 0 -10 5
-10 10 0 6 5 10 10 10 6 0 10 -4 10 -10z"/>
<path d="M2087 1103 c-14 -13 -7 -43 11 -43 14 0 14 2 3 9 -12 8 -12 12 -2 25
13 15 2 23 -12 9z"/>
<path d="M2125 1101 c-3 -5 -1 -12 5 -16 6 -4 7 -11 4 -17 -4 -6 -1 -9 5 -7 7
3 12 8 12 12 -1 4 -1 14 -1 22 0 17 -16 20 -25 6z"/>
<path d="M2179 1110 c-8 -21 -4 -50 7 -50 8 0 14 3 13 8 -1 12 -17 47 -20 42z"/>
<path d="M2256 1103 c-3 -3 -6 -14 -6 -24 0 -29 57 -21 63 9 5 28 -7 28 -27 0
-9 -12 -19 -18 -23 -14 -4 4 -1 11 6 15 8 5 9 11 3 14 -5 4 -12 4 -16 0z"/>
<path d="M2347 1103 c-8 -13 2 -43 14 -43 10 0 10 8 0 34 -5 12 -10 16 -14 9z"/>
<path d="M2390 1100 c0 -5 5 -10 10 -10 6 0 10 5 10 10 0 6 -4 10 -10 10 -5 0
-10 -4 -10 -10z"/>
<path d="M2430 1095 c-19 -23 3 -44 29 -28 14 9 21 9 30 0 8 -8 11 -7 11 6 0
26 -29 33 -45 11 -7 -11 -17 -16 -21 -12 -4 4 -1 14 6 23 7 8 10 15 7 15 -2 0
-10 -7 -17 -15z"/>
<path d="M2565 1097 c-4 -10 -4 -21 -1 -25 14 -13 121 -10 143 4 26 16 57 19
48 4 -4 -6 -11 -8 -16 -5 -5 4 -9 1 -9 -4 0 -17 30 -13 36 4 4 8 10 12 15 9 5
-3 6 -10 3 -16 -4 -6 -1 -9 7 -6 8 3 12 14 11 24 -5 26 -9 29 -25 16 -8 -7
-17 -9 -21 -5 -14 14 -66 11 -66 -3 0 -17 -17 -18 -23 -1 -4 9 -8 8 -17 -3 -9
-11 -13 -12 -17 -2 -7 18 -31 15 -36 -5 -3 -15 -6 -14 -14 7 -10 22 -12 23
-18 7z"/>
<path d="M551 1083 c-1 -26 24 -31 33 -7 10 25 6 31 -6 9 -11 -19 -11 -19 -19
0 -7 19 -8 18 -8 -2z"/>
<path d="M3080 1085 c0 -8 7 -15 16 -15 14 0 14 3 4 15 -7 8 -14 15 -16 15 -2
0 -4 -7 -4 -15z"/>
<path d="M3274 1089 c-3 -6 -2 -15 3 -20 5 -5 9 -1 9 11 0 23 -2 24 -12 9z"/>
<path d="M3160 1079 c0 -7 9 -9 24 -5 15 4 26 1 29 -7 3 -7 6 -5 6 6 1 12 -7
17 -29 17 -16 0 -30 -5 -30 -11z"/>
<path d="M3330 1081 c0 -5 11 -8 25 -7 33 1 33 16 0 16 -14 0 -25 -4 -25 -9z"/>
<path d="M3410 1075 c10 -12 90 -7 90 5 0 4 -22 7 -49 7 -34 -1 -47 -5 -41
-12z"/>
<path d="M3519 1073 c-13 -15 -12 -15 9 -4 23 12 28 21 13 21 -5 0 -15 -7 -22
-17z"/>
<path d="M3565 1080 c3 -5 10 -10 16 -10 5 0 9 5 9 10 0 6 -7 10 -16 10 -8 0
-12 -4 -9 -10z"/>
<path d="M5011 1076 c-7 -8 -11 -23 -8 -33 3 -14 6 -12 16 11 13 33 9 43 -8
22z"/>
<path d="M5635 1080 c3 -5 15 -10 26 -10 10 0 19 5 19 10 0 6 -12 10 -26 10
-14 0 -23 -4 -19 -10z"/>
<path d="M65 1070 c-3 -5 1 -10 10 -10 9 0 13 5 10 10 -3 6 -8 10 -10 10 -2 0
-7 -4 -10 -10z"/>
<path d="M600 1070 c0 -5 5 -10 10 -10 6 0 10 5 10 10 0 6 -4 10 -10 10 -5 0
-10 -4 -10 -10z"/>
<path d="M2390 1070 c0 -5 5 -10 10 -10 6 0 10 5 10 10 0 6 -4 10 -10 10 -5 0
-10 -4 -10 -10z"/>
<path d="M5176 1025 c4 -8 11 -15 16 -15 6 0 5 6 -2 15 -7 8 -14 15 -16 15 -2
0 -1 -7 2 -15z"/>
<path d="M5191 995 c0 -5 6 -21 14 -35 8 -14 14 -20 14 -15 0 6 -6 21 -14 35
-8 14 -14 21 -14 15z"/>
<path d="M72 849 c4 -9 1 -22 -5 -28 -8 -8 -8 -11 0 -11 6 0 13 6 16 13 3 9 8
9 21 -2 20 -17 40 -3 30 22 -7 19 -20 22 -29 7 -5 -8 -12 -7 -23 2 -13 11 -15
11 -10 -3z m58 -19 c0 -5 -4 -10 -10 -10 -5 0 -10 5 -10 10 0 6 5 10 10 10 6
0 10 -4 10 -10z"/>
<path d="M163 849 c3 -9 0 -22 -6 -28 -8 -8 -8 -11 0 -11 17 0 25 32 12 44 -9
8 -10 7 -6 -5z"/>
<path d="M204 851 c4 -6 2 -18 -4 -26 -10 -12 -9 -15 4 -15 18 0 22 35 4 46
-7 4 -8 3 -4 -5z"/>
<path d="M560 860 c-1 -3 -4 -15 -5 -28 -2 -23 15 -26 59 -7 13 6 21 4 24 -3
6 -20 17 -13 17 12 0 20 -4 23 -30 21 -16 -1 -31 -7 -33 -14 -6 -17 -20 -13
-25 7 -3 9 -6 15 -7 12z"/>
<path d="M687 853 c-14 -14 -7 -43 11 -42 10 0 12 3 5 6 -7 2 -13 11 -13 19 0
9 5 12 12 8 7 -4 8 -3 4 4 -8 14 -10 14 -19 5z"/>
<path d="M730 850 c0 -5 5 -10 10 -10 6 0 10 5 10 10 0 6 -4 10 -10 10 -5 0
-10 -4 -10 -10z"/>
<path d="M775 846 c-5 -11 -3 -21 6 -26 19 -12 21 -7 10 21 -8 22 -10 22 -16
5z"/>
<path d="M980 852 c-5 -2 -10 -10 -10 -18 0 -20 -18 -17 -23 4 -4 13 -5 12 -6
-5 -1 -21 3 -22 59 -19 65 3 80 10 61 29 -11 11 -58 16 -81 9z m30 -23 c0 -5
-4 -9 -10 -9 -5 0 -10 7 -10 16 0 8 5 12 10 9 6 -3 10 -10 10 -16z m40 1 c0
-5 -4 -10 -10 -10 -5 0 -10 5 -10 10 0 6 5 10 10 10 6 0 10 -4 10 -10z"/>
<path d="M1078 855 c-8 -8 2 -45 13 -45 10 0 10 8 0 33 -3 10 -9 15 -13 12z"/>
<path d="M2087 853 c-14 -13 -7 -43 11 -43 14 0 14 2 3 9 -12 8 -12 12 -2 25
13 15 2 23 -12 9z"/>
<path d="M2125 851 c-3 -5 -1 -12 5 -16 6 -4 7 -11 4 -17 -4 -6 -1 -9 5 -7 7
3 12 8 12 12 -1 4 -1 14 -1 22 0 17 -16 20 -25 6z"/>
<path d="M2179 860 c-8 -21 -4 -50 7 -50 8 0 14 3 13 8 -1 12 -17 47 -20 42z"/>
<path d="M2256 853 c-3 -3 -6 -14 -6 -24 0 -29 57 -21 63 9 5 28 -7 28 -27 0
-9 -12 -19 -18 -23 -14 -4 4 -1 11 6 15 8 5 9 11 3 14 -5 4 -12 4 -16 0z"/>
<path d="M2347 853 c-8 -13 2 -43 14 -43 10 0 10 8 0 34 -5 12 -10 16 -14 9z"/>
<path d="M2390 850 c0 -5 5 -10 10 -10 6 0 10 5 10 10 0 6 -4 10 -10 10 -5 0
-10 -4 -10 -10z"/>
<path d="M2430 845 c-6 -8 -9 -19 -5 -25 8 -14 45 -13 45 1 0 8 5 8 15 -1 12
-10 15 -9 15 4 0 25 -29 31 -45 10 -7 -11 -17 -16 -21 -12 -4 4 -1 14 6 23 7
8 10 15 7 15 -2 0 -10 -7 -17 -15z"/>
<path d="M2565 847 c-4 -10 -4 -21 -1 -25 13 -13 121 -10 143 4 26 16 57 19
48 4 -4 -6 -11 -8 -16 -5 -5 4 -9 1 -9 -4 0 -17 30 -13 36 4 4 8 10 12 15 9 5
-3 6 -10 3 -16 -4 -6 -1 -9 7 -6 8 3 12 14 11 24 -5 26 -9 29 -25 16 -8 -7
-17 -9 -21 -5 -14 14 -66 11 -66 -3 0 -17 -17 -18 -23 -1 -4 9 -8 8 -17 -3 -9
-11 -13 -12 -17 -2 -7 18 -31 15 -36 -5 -3 -15 -6 -14 -14 7 -10 22 -12 23
-18 7z"/>
<path d="M810 830 c0 -11 4 -20 9 -20 5 0 7 9 4 20 -3 11 -7 20 -9 20 -2 0 -4
-9 -4 -20z"/>
<path d="M890 836 c0 -7 8 -16 19 -19 14 -3 17 0 14 14 -6 22 -33 26 -33 5z"/>
<path d="M3080 835 c0 -8 7 -15 16 -15 14 0 14 3 4 15 -7 8 -14 15 -16 15 -2
0 -4 -7 -4 -15z"/>
<path d="M3274 839 c-3 -6 -2 -15 3 -20 5 -5 9 -1 9 11 0 23 -2 24 -12 9z"/>
<path d="M3160 829 c0 -7 9 -9 24 -5 15 4 26 1 29 -7 3 -7 6 -5 6 6 1 12 -7
17 -29 17 -16 0 -30 -5 -30 -11z"/>
<path d="M3330 831 c0 -5 11 -8 25 -7 33 1 33 16 0 16 -14 0 -25 -4 -25 -9z"/>
<path d="M3406 828 c7 -11 92 -10 99 1 3 6 -18 9 -49 8 -30 -1 -52 -5 -50 -9z"/>
<path d="M3519 823 c-13 -15 -12 -15 9 -4 23 12 28 21 13 21 -5 0 -15 -7 -22
-17z"/>
<path d="M3565 830 c3 -5 10 -10 16 -10 5 0 9 5 9 10 0 6 -7 10 -16 10 -8 0
-12 -4 -9 -10z"/>
<path d="M5635 830 c3 -5 15 -10 26 -10 10 0 19 5 19 10 0 6 -12 10 -26 10
-14 0 -23 -4 -19 -10z"/>
<path d="M730 820 c0 -5 5 -10 10 -10 6 0 10 5 10 10 0 6 -4 10 -10 10 -5 0
-10 -4 -10 -10z"/>
<path d="M2390 820 c0 -5 5 -10 10 -10 6 0 10 5 10 10 0 6 -4 10 -10 10 -5 0
-10 -4 -10 -10z"/>
<path d="M4540 679 c0 -5 23 -9 50 -9 28 0 50 4 50 8 0 5 -22 9 -50 10 -27 0
-50 -3 -50 -9z"/>
<path d="M4660 680 c0 -5 5 -10 10 -10 6 0 10 5 10 10 0 6 -4 10 -10 10 -5 0
-10 -4 -10 -10z"/>
<path d="M4563 642 c-15 -2 -23 -10 -23 -23 0 -18 6 -20 70 -17 39 1 70 6 70
11 0 5 6 5 13 -1 6 -6 53 -11 102 -12 149 -3 157 -2 153 18 -3 15 -17 17 -109
18 -58 0 -111 4 -118 8 -6 4 -18 2 -26 -4 -8 -7 -15 -9 -15 -4 0 9 -73 12
-117 6z"/>
<path d="M5150 640 c-13 -9 -13 -10 0 -10 8 0 22 5 30 10 13 9 13 10 0 10 -8
0 -22 -5 -30 -10z"/>
<path d="M5200 640 c0 -5 5 -10 11 -10 5 0 7 5 4 10 -3 6 -8 10 -11 10 -2 0
-4 -4 -4 -10z"/>
<path d="M5117 613 c-9 -9 -9 -81 1 -86 4 -3 7 17 7 44 0 27 0 49 -1 49 0 0
-4 -3 -7 -7z"/>
<path d="M5240 613 c0 -4 5 -15 10 -23 8 -13 10 -13 10 2 0 9 -4 20 -10 23 -5
3 -10 3 -10 -2z"/>
<path d="M65 600 c-3 -5 -1 -10 6 -10 8 0 8 -4 -1 -15 -8 -9 -8 -15 -2 -15 6
0 12 6 15 13 3 9 8 9 21 -2 20 -17 40 -3 30 22 -7 19 -20 22 -29 7 -5 -8 -11
-8 -20 0 -9 8 -15 8 -20 0z m65 -20 c0 -5 -4 -10 -10 -10 -5 0 -10 5 -10 10 0
6 5 10 10 10 6 0 10 -4 10 -10z"/>
<path d="M163 599 c3 -9 0 -22 -6 -28 -8 -8 -8 -11 0 -11 17 0 25 32 12 44 -9
8 -10 7 -6 -5z"/>
<path d="M204 601 c4 -6 2 -18 -4 -26 -10 -12 -9 -15 4 -15 18 0 22 35 4 46
-7 4 -8 3 -4 -5z"/>
<path d="M560 585 c0 -14 4 -25 9 -25 4 0 6 11 3 25 -2 14 -6 25 -8 25 -2 0
-4 -11 -4 -25z"/>
<path d="M680 600 c-7 -4 -30 -6 -51 -4 -28 3 -39 0 -39 -10 0 -18 29 -29 45
-16 6 5 15 7 19 3 11 -11 51 -11 59 1 6 8 10 7 14 -1 7 -19 20 -16 26 7 3 11
1 18 -3 15 -5 -3 -19 -1 -32 4 -14 5 -31 6 -38 1z m24 -21 c-3 -5 -10 -7 -15
-3 -5 3 -7 10 -3 15 3 5 10 7 15 3 5 -3 7 -10 3 -15z"/>
<path d="M775 596 c-5 -11 -3 -21 6 -26 19 -12 21 -7 10 21 -8 22 -10 22 -16
5z"/>
<path d="M818 583 c5 -25 6 -25 13 -8 11 29 10 35 -5 35 -9 0 -12 -8 -8 -27z"/>
<path d="M860 600 c0 -5 5 -10 10 -10 6 0 10 5 10 10 0 6 -4 10 -10 10 -5 0
-10 -4 -10 -10z"/>
<path d="M899 594 c-18 -22 3 -39 28 -25 14 7 23 7 32 -2 10 -9 12 -8 9 7 -4
26 -53 39 -69 20z m21 -14 c0 -5 -4 -10 -10 -10 -5 0 -10 5 -10 10 0 6 5 10
10 10 6 0 10 -4 10 -10z"/>
<path d="M2087 603 c-14 -13 -7 -43 11 -43 14 0 14 2 3 9 -12 8 -12 12 -2 25
13 15 2 23 -12 9z"/>
<path d="M2125 601 c-3 -5 -1 -12 5 -16 6 -4 7 -11 4 -17 -4 -6 -1 -9 5 -7 7
3 12 8 12 12 -1 4 -1 14 -1 22 0 17 -16 20 -25 6z"/>
<path d="M2179 610 c-8 -21 -4 -50 7 -50 8 0 14 3 13 8 -1 12 -17 47 -20 42z"/>
<path d="M2256 603 c-3 -3 -6 -14 -6 -24 0 -29 57 -21 63 9 5 28 -7 28 -27 0
-9 -12 -19 -18 -23 -14 -4 4 -1 11 6 15 8 5 9 11 3 14 -5 4 -12 4 -16 0z"/>
<path d="M2347 603 c-8 -13 2 -43 14 -43 10 0 10 8 0 34 -5 12 -10 16 -14 9z"/>
<path d="M2390 600 c0 -5 5 -10 10 -10 6 0 10 5 10 10 0 6 -4 10 -10 10 -5 0
-10 -4 -10 -10z"/>
<path d="M2430 595 c-6 -8 -9 -19 -5 -25 8 -14 45 -13 45 1 0 8 5 8 15 -1 12
-10 15 -9 15 4 0 25 -29 31 -45 10 -7 -11 -17 -16 -21 -12 -4 4 -1 14 6 23 7
8 10 15 7 15 -2 0 -10 -7 -17 -15z"/>
<path d="M2565 597 c-4 -10 -4 -21 -1 -25 13 -13 121 -10 143 4 26 16 57 19
48 4 -4 -6 -11 -8 -16 -5 -5 4 -9 1 -9 -4 0 -17 30 -13 36 4 4 8 10 12 15 9 5
-3 6 -10 3 -16 -4 -6 -1 -9 7 -6 8 3 12 14 11 24 -5 26 -9 29 -25 16 -8 -7
-17 -9 -21 -5 -4 4 -21 8 -37 9 -23 1 -29 -2 -29 -20 -1 -21 -1 -21 -16 -1
-13 17 -16 18 -25 5 -8 -11 -12 -12 -16 -2 -7 18 -31 15 -36 -5 -3 -15 -6 -14
-14 7 -10 22 -12 23 -18 7z"/>
<path d="M5161 596 c-11 -13 -10 -18 2 -31 8 -8 17 -20 20 -27 3 -10 9 -8 23
5 18 17 18 18 -7 43 -23 22 -27 23 -38 10z"/>
<path d="M3080 587 c0 -19 16 -31 24 -18 3 5 -1 14 -9 21 -12 10 -15 10 -15
-3z"/>
<path d="M3145 592 c-3 -3 -5 -10 -5 -16 0 -6 5 -4 10 4 7 12 10 12 10 1 0 -9
8 -11 24 -7 15 4 26 1 29 -7 3 -7 6 -5 6 6 1 9 -5 17 -11 18 -7 0 -23 2 -36 3
-12 2 -24 0 -27 -2z"/>
<path d="M3274 589 c-3 -6 -2 -15 3 -20 5 -5 9 -1 9 11 0 23 -2 24 -12 9z"/>
<path d="M5633 586 c4 -14 47 -21 47 -8 0 5 -11 12 -25 15 -16 3 -24 0 -22 -7z"/>
<path d="M3330 581 c0 -5 11 -8 25 -7 33 1 33 16 0 16 -14 0 -25 -4 -25 -9z"/>
<path d="M3406 578 c7 -11 92 -10 99 1 3 6 -18 9 -49 8 -30 -1 -52 -5 -50 -9z"/>
<path d="M3519 573 c-13 -15 -12 -15 9 -4 23 12 28 21 13 21 -5 0 -15 -7 -22
-17z"/>
<path d="M3565 580 c3 -5 10 -10 16 -10 5 0 9 5 9 10 0 6 -7 10 -16 10 -8 0
-12 -4 -9 -10z"/>
<path d="M860 570 c0 -5 5 -10 11 -10 5 0 7 5 4 10 -3 6 -8 10 -11 10 -2 0 -4
-4 -4 -10z"/>
<path d="M2390 570 c0 -5 5 -10 10 -10 6 0 10 5 10 10 0 6 -4 10 -10 10 -5 0
-10 -4 -10 -10z"/>
<path d="M5245 544 c-4 -12 -21 -28 -38 -37 -20 -10 -25 -16 -15 -16 24 -1 72
43 65 60 -4 10 -7 9 -12 -7z"/>
<path d="M4540 500 c0 -5 16 -10 36 -10 21 0 33 4 29 10 -3 6 -19 10 -36 10
-16 0 -29 -4 -29 -10z"/>
<path d="M4620 500 c0 -6 23 -10 56 -10 30 0 53 4 50 8 -8 13 -106 15 -106 2z"/>
<path d="M4745 500 c-3 -5 1 -10 10 -10 9 0 13 5 10 10 -3 6 -8 10 -10 10 -2
0 -7 -4 -10 -10z"/>
<path d="M4780 498 c0 -4 20 -8 45 -8 25 0 45 5 45 10 0 6 -20 9 -45 8 -25 0
-45 -5 -45 -10z"/>
<path d="M4880 500 c0 -5 16 -10 36 -10 21 0 33 4 29 10 -3 6 -19 10 -36 10
-16 0 -29 -4 -29 -10z"/>
<path d="M4965 500 c-4 -6 10 -10 34 -10 23 0 41 5 41 10 0 6 -15 10 -34 10
-19 0 -38 -4 -41 -10z"/>
<path d="M65 350 c-3 -5 -1 -10 6 -10 8 0 8 -4 -1 -15 -8 -9 -8 -15 -2 -15 6
0 12 6 15 13 3 9 8 9 21 -2 20 -17 40 -3 30 22 -7 19 -20 22 -29 7 -5 -8 -11
-8 -20 0 -9 8 -15 8 -20 0z m65 -20 c0 -5 -4 -10 -10 -10 -5 0 -10 5 -10 10 0
6 5 10 10 10 6 0 10 -4 10 -10z"/>
<path d="M163 349 c3 -9 0 -22 -6 -28 -8 -8 -8 -11 0 -11 17 0 25 32 12 44 -9
8 -10 7 -6 -5z"/>
<path d="M204 351 c4 -6 2 -18 -4 -26 -10 -12 -9 -15 4 -15 18 0 22 35 4 46
-7 4 -8 3 -4 -5z"/>
<path d="M587 349 c-9 -6 -22 -7 -27 -4 -6 3 -10 -2 -10 -11 0 -10 3 -15 6
-11 3 3 17 2 31 -4 15 -6 31 -5 43 1 10 6 21 6 24 1 8 -12 88 -4 97 10 4 6 12
8 18 5 6 -4 9 -12 6 -17 -4 -5 1 -9 10 -9 12 0 15 5 11 16 -3 9 -6 19 -6 22 0
6 -67 6 -130 0 -8 -1 -24 1 -35 5 -11 3 -28 2 -38 -4z m33 -20 c0 -5 -4 -9
-10 -9 -5 0 -10 7 -10 16 0 8 5 12 10 9 6 -3 10 -10 10 -16z m87 -5 c-9 -9
-28 6 -21 18 4 6 10 6 17 -1 6 -6 8 -13 4 -17z"/>
<path d="M2086 344 c-3 -9 -6 -19 -6 -24 0 -13 238 -6 252 8 15 15 42 16 33 2
-4 -6 -11 -8 -16 -5 -5 4 -9 1 -9 -4 0 -17 30 -13 36 4 4 8 10 12 15 9 5 -3 6
-10 3 -16 -4 -6 -1 -9 7 -6 8 3 12 14 11 24 -5 26 -9 29 -25 16 -10 -8 -17 -8
-24 -1 -8 8 -17 7 -33 -1 -15 -8 -20 -8 -16 -1 4 6 2 11 -3 11 -6 0 -11 -10
-11 -22 -1 -23 -1 -23 -16 -3 -13 17 -16 18 -25 5 -8 -11 -12 -12 -16 -2 -3 8
-26 12 -64 12 -49 0 -59 -3 -60 -17 0 -14 -2 -13 -9 5 -11 26 -16 27 -24 6z"/>
<path d="M3082 334 c3 -17 21 -21 26 -6 1 5 -4 12 -13 16 -11 4 -15 1 -13 -10z"/>
<path d="M3145 342 c-3 -3 -5 -10 -5 -16 0 -6 5 -4 10 4 7 12 10 12 10 1 0 -9
8 -11 24 -7 15 4 26 1 29 -7 3 -7 6 -5 6 6 1 9 -5 17 -11 18 -7 0 -23 2 -36 3
-12 2 -24 0 -27 -2z"/>
<path d="M3274 339 c-3 -6 -2 -15 3 -20 5 -5 9 -1 9 11 0 23 -2 24 -12 9z"/>
<path d="M5633 336 c4 -14 47 -21 47 -8 0 5 -11 12 -25 15 -16 3 -24 0 -22 -7z"/>
<path d="M3330 331 c0 -5 11 -8 25 -7 33 1 33 16 0 16 -14 0 -25 -4 -25 -9z"/>
<path d="M3400 328 c0 -11 98 -10 105 1 3 6 -18 9 -50 8 -30 -1 -55 -5 -55 -9z"/>
<path d="M3519 323 c-13 -15 -12 -15 9 -4 23 12 28 21 13 21 -5 0 -15 -7 -22
-17z"/>
<path d="M3565 330 c3 -5 10 -10 16 -10 5 0 9 5 9 10 0 6 -7 10 -16 10 -8 0
-12 -4 -9 -10z"/>
<path d="M160 101 c0 -5 5 -13 10 -16 6 -3 10 -2 10 4 0 5 -4 13 -10 16 -5 3
-10 2 -10 -4z"/>
<path d="M204 101 c4 -6 2 -18 -4 -26 -10 -12 -9 -15 4 -15 18 0 22 35 4 46
-7 4 -8 3 -4 -5z"/>
<path d="M559 110 c-8 -21 -4 -50 7 -50 8 0 14 3 13 8 -1 12 -17 47 -20 42z"/>
<path d="M600 100 c0 -5 5 -10 10 -10 6 0 10 5 10 10 0 6 -4 10 -10 10 -5 0
-10 -4 -10 -10z"/>
<path d="M641 103 c0 -5 4 -17 9 -28 8 -18 9 -17 9 8 1 15 -3 27 -9 27 -5 0
-10 -3 -9 -7z"/>
<path d="M687 103 c-11 -10 -8 -43 3 -43 6 0 10 11 10 25 0 26 -2 29 -13 18z"/>
<path d="M763 93 c-3 -8 -1 -19 4 -24 13 -13 63 6 63 23 0 18 -60 19 -67 1z
m23 -20 c-10 -10 -19 5 -10 18 6 11 8 11 12 0 2 -7 1 -15 -2 -18z"/>
<path d="M901 103 c0 -5 4 -17 9 -28 8 -18 9 -17 9 8 1 15 -3 27 -9 27 -5 0
-10 -3 -9 -7z"/>
<path d="M977 99 c-9 -5 -22 -7 -27 -4 -6 3 -10 -1 -10 -10 0 -9 4 -14 9 -10
5 3 12 1 16 -5 11 -19 33 -10 37 15 6 27 2 30 -25 14z"/>
<path d="M1070 87 c0 -21 5 -24 40 -23 44 1 46 4 25 32 -14 19 -14 19 -15 0 0
-18 -1 -18 -18 -3 -25 23 -32 21 -32 -6z m30 -1 c0 -3 -4 -8 -10 -11 -5 -3
-10 -1 -10 4 0 6 5 11 10 11 6 0 10 -2 10 -4z"/>
<path d="M2130 100 c0 -5 5 -10 10 -10 6 0 10 5 10 10 0 6 -4 10 -10 10 -5 0
-10 -4 -10 -10z"/>
<path d="M2205 100 c-4 -6 -15 -8 -26 -5 -14 5 -17 3 -13 -9 3 -9 9 -16 13
-17 3 0 18 -3 34 -5 18 -3 29 0 33 11 3 8 10 12 15 9 5 -3 7 -10 4 -15 -8 -12
-5 -11 34 2 18 6 30 16 28 23 -5 15 -33 14 -29 -1 1 -7 -2 -13 -8 -13 -5 0
-10 7 -10 15 0 18 -12 19 -27 4 -8 -8 -13 -8 -17 0 -9 14 -23 14 -31 1z m29
-21 c-3 -5 -10 -7 -15 -3 -5 3 -7 10 -3 15 3 5 10 7 15 3 5 -3 7 -10 3 -15z"/>
<path d="M2350 103 c0 -6 -2 -17 -5 -25 -4 -9 5 -13 34 -13 27 0 37 4 34 13
-3 6 0 12 6 12 6 0 11 -4 11 -9 0 -5 6 -11 14 -14 9 -4 12 0 9 13 -3 11 -17
20 -35 22 -24 4 -32 1 -36 -15 -5 -18 -6 -18 -18 4 -7 13 -13 19 -14 12z"/>
<path d="M2517 103 c-10 -9 -8 -43 2 -43 5 0 11 11 13 25 5 24 -2 32 -15 18z"/>
<path d="M2690 94 c-11 -12 -15 -12 -22 -2 -6 10 -10 10 -19 -2 -8 -11 -12
-12 -16 -2 -8 19 -33 14 -33 -7 0 -17 7 -19 60 -18 49 1 60 5 60 19 0 24 -16
30 -30 12z m16 -21 c-10 -10 -19 5 -10 18 6 11 8 11 12 0 2 -7 1 -15 -2 -18z"/>
<path d="M1160 91 c0 -17 18 -21 24 -6 3 9 0 15 -9 15 -8 0 -15 -4 -15 -9z"/>
<path d="M2080 80 c0 -26 26 -26 33 0 4 15 0 20 -14 20 -12 0 -19 -7 -19 -20z"/>
<path d="M2470 80 c0 -11 4 -20 9 -20 5 0 7 9 4 20 -3 11 -7 20 -9 20 -2 0 -4
-9 -4 -20z"/>
<path d="M3080 88 c0 -27 16 -29 36 -5 12 13 13 17 3 10 -12 -10 -18 -10 -27
-1 -9 9 -12 8 -12 -4z"/>
<path d="M3145 91 c-3 -2 -5 -9 -5 -15 0 -6 5 -4 10 4 7 12 10 12 10 1 0 -9 8
-11 24 -7 15 4 26 1 29 -7 4 -7 6 -6 6 4 1 12 -9 18 -34 21 -20 2 -38 2 -40
-1z"/>
<path d="M3274 89 c-3 -6 -2 -15 3 -20 5 -5 9 -1 9 11 0 23 -2 24 -12 9z"/>
<path d="M5633 86 c4 -14 47 -21 47 -8 0 5 -11 12 -25 15 -16 3 -24 0 -22 -7z"/>
<path d="M3330 81 c0 -5 11 -8 25 -7 33 1 33 16 0 16 -14 0 -25 -4 -25 -9z"/>
<path d="M3411 75 c11 -11 80 -8 93 5 5 5 -16 8 -47 7 -37 -1 -53 -5 -46 -12z"/>
<path d="M3519 73 c-13 -15 -12 -15 9 -4 23 12 28 21 13 21 -5 0 -15 -7 -22
-17z"/>
<path d="M3565 80 c3 -5 10 -10 16 -10 5 0 9 5 9 10 0 6 -7 10 -16 10 -8 0
-12 -4 -9 -10z"/>
<path d="M600 70 c0 -5 5 -10 10 -10 6 0 10 5 10 10 0 6 -4 10 -10 10 -5 0
-10 -4 -10 -10z"/>
<path d="M2130 70 c0 -5 5 -10 10 -10 6 0 10 5 10 10 0 6 -4 10 -10 10 -5 0
-10 -4 -10 -10z"/>
</g>
</svg>
