<?xml version="1.0" standalone="no"?>
<!DOCTYPE svg PUBLIC "-//W3C//DTD SVG 20010904//EN"
 "http://www.w3.org/TR/2001/REC-SVG-20010904/DTD/svg10.dtd">
<svg version="1.0" xmlns="http://www.w3.org/2000/svg"
 width="624.000000pt" height="355.000000pt" viewBox="0 0 624.000000 355.000000"
 preserveAspectRatio="xMidYMid meet">

<g transform="translate(0.000000,355.000000) scale(0.100000,-0.100000)"
fill="#000000" stroke="none">
<path d="M4660 3497 c0 -19 46 -19 61 -1 7 9 8 14 1 14 -6 0 -12 -5 -14 -11
-3 -9 -10 -9 -26 0 -18 9 -22 9 -22 -2z"/>
<path d="M4780 3495 c0 -8 5 -15 10 -15 6 0 10 7 10 15 0 8 -4 15 -10 15 -5 0
-10 -7 -10 -15z"/>
<path d="M4820 3496 c0 -9 5 -16 10 -16 6 0 10 4 10 9 0 6 -4 13 -10 16 -5 3
-10 -1 -10 -9z"/>
<path d="M4857 3494 c3 -8 9 -14 13 -14 4 0 13 6 19 14 9 11 7 14 -13 14 -17
0 -23 -5 -19 -14z"/>
<path d="M4940 3501 c0 -6 4 -13 10 -16 6 -3 7 1 4 9 -7 18 -14 21 -14 7z"/>
<path d="M5010 3501 c0 -6 4 -13 10 -16 6 -3 7 1 4 9 -7 18 -14 21 -14 7z"/>
<path d="M5040 3501 c0 -6 4 -13 10 -16 6 -3 7 1 4 9 -7 18 -14 21 -14 7z"/>
<path d="M5070 3501 c0 -6 4 -13 10 -16 6 -3 7 1 4 9 -7 18 -14 21 -14 7z"/>
<path d="M5111 3494 c0 -11 3 -14 6 -6 3 7 2 16 -1 19 -3 4 -6 -2 -5 -13z"/>
<path d="M5144 3498 c-6 -9 7 -15 35 -14 13 1 26 6 28 13 5 13 -55 14 -63 1z"/>
<path d="M5230 3500 c0 -5 7 -10 15 -10 8 0 15 5 15 10 0 6 -7 10 -15 10 -8 0
-15 -4 -15 -10z"/>
<path d="M5280 3494 c0 -8 5 -12 10 -9 6 4 8 11 5 16 -9 14 -15 11 -15 -7z"/>
<path d="M5387 3496 c-6 -15 35 -16 45 -1 5 6 8 5 8 -2 0 -7 5 -13 10 -13 6 0
10 6 10 14 0 18 -67 19 -73 2z"/>
<path d="M55 3441 c-3 -5 -1 -12 5 -16 5 -3 10 1 10 9 0 18 -6 21 -15 7z"/>
<path d="M161 3434 c0 -11 3 -14 6 -6 3 7 2 16 -1 19 -3 4 -6 -2 -5 -13z"/>
<path d="M190 3434 c0 -8 5 -12 10 -9 6 3 10 10 10 16 0 5 -4 9 -10 9 -5 0
-10 -7 -10 -16z"/>
<path d="M250 3434 c0 -8 5 -12 10 -9 6 3 10 10 10 16 0 5 -4 9 -10 9 -5 0
-10 -7 -10 -16z"/>
<path d="M280 3435 c0 -8 5 -15 10 -15 6 0 10 7 10 15 0 8 -4 15 -10 15 -5 0
-10 -7 -10 -15z"/>
<path d="M350 3435 c0 -11 12 -15 45 -15 32 0 45 4 45 14 0 15 -35 16 -58 2
-7 -4 -12 -2 -12 3 0 6 -4 11 -10 11 -5 0 -10 -7 -10 -15z"/>
<path d="M965 3441 c-6 -11 13 -26 22 -17 4 3 1 6 -6 6 -7 0 -9 5 -6 10 3 6 4
10 1 10 -3 0 -7 -4 -11 -9z"/>
<path d="M1067 3444 c-14 -14 -7 -24 19 -24 14 0 23 4 19 10 -4 6 -10 8 -15 5
-4 -3 -10 0 -12 6 -2 5 -7 7 -11 3z"/>
<path d="M1175 3434 c7 -8 18 -14 23 -14 5 0 9 6 9 14 0 7 -10 14 -23 14 -19
0 -21 -3 -9 -14z"/>
<path d="M1230 3435 c0 -8 4 -15 10 -15 5 0 7 7 4 15 -4 8 -8 15 -10 15 -2 0
-4 -7 -4 -15z"/>
<path d="M1290 3439 c0 -13 10 -17 40 -17 27 -1 40 4 40 12 0 16 -47 18 -56 4
-4 -6 -10 -5 -15 3 -7 11 -9 11 -9 -2z"/>
<path d="M1390 3435 c0 -8 5 -15 10 -15 6 0 10 7 10 15 0 8 -4 15 -10 15 -5 0
-10 -7 -10 -15z"/>
<path d="M1454 3441 c-12 -13 1 -19 44 -19 29 -1 42 2 33 7 -11 7 -11 9 0 14
8 3 -5 4 -29 4 -24 -1 -45 -4 -48 -6z"/>
<path d="M1587 3444 c-14 -14 -7 -24 17 -24 14 0 28 5 31 11 11 16 -3 23 -19
10 -10 -8 -15 -9 -18 -1 -2 6 -7 8 -11 4z"/>
<path d="M1719 3442 c9 -7 10 -11 2 -15 -7 -4 -8 -5 0 -3 15 2 13 20 -3 24
-10 3 -10 2 1 -6z"/>
<path d="M1780 3437 c0 -7 9 -13 20 -13 11 0 22 6 24 13 4 8 -3 13 -19 13 -14
0 -25 -6 -25 -13z"/>
<path d="M1847 3443 c-10 -9 -9 -23 1 -23 5 0 9 7 9 15 0 17 -1 18 -10 8z"/>
<path d="M1905 3441 c-3 -5 0 -13 6 -17 8 -4 9 -3 5 4 -4 7 -2 12 3 12 6 0 11
-4 11 -10 0 -5 7 -10 15 -10 8 0 15 7 15 15 0 17 -45 21 -55 6z"/>
<path d="M3046 3435 c-3 -9 0 -15 9 -15 16 0 20 16 6 24 -5 3 -11 -1 -15 -9z"/>
<path d="M3110 3435 c0 -8 5 -15 10 -15 6 0 10 7 10 15 0 8 -4 15 -10 15 -5 0
-10 -7 -10 -15z"/>
<path d="M3210 3436 c0 -12 9 -16 35 -16 19 0 35 4 35 9 0 14 -34 24 -38 11
-3 -8 -8 -7 -18 1 -11 9 -14 8 -14 -5z"/>
<path d="M3300 3435 c0 -8 5 -15 10 -15 6 0 10 7 10 15 0 8 -4 15 -10 15 -5 0
-10 -7 -10 -15z"/>
<path d="M3370 3433 c0 -7 9 -13 19 -13 11 0 22 6 24 13 4 10 6 10 6 0 1 -19
41 -16 41 2 0 12 -10 15 -45 13 -28 -2 -45 -8 -45 -15z"/>
<path d="M4660 3440 c0 -5 5 -10 11 -10 5 0 7 5 4 10 -3 6 -8 10 -11 10 -2 0
-4 -4 -4 -10z"/>
<path d="M4692 3438 c3 -7 15 -14 29 -15 13 -1 18 0 11 3 -6 3 -10 10 -6 15 3
5 -4 9 -16 9 -13 0 -20 -5 -18 -12z"/>
<path d="M4770 3440 c-12 -8 -11 -10 7 -10 12 0 24 -4 28 -10 4 -6 15 -6 31 0
32 13 37 12 29 0 -3 -5 -2 -10 2 -10 11 0 33 21 33 31 0 11 -113 10 -130 -1z"/>
<path d="M4950 3439 c0 -6 6 -9 14 -6 8 3 17 1 20 -6 2 -7 5 -4 5 6 1 11 -6
17 -19 17 -11 0 -20 -5 -20 -11z"/>
<path d="M5050 3440 c0 -5 5 -10 10 -10 6 0 10 5 10 10 0 6 -4 10 -10 10 -5 0
-10 -4 -10 -10z"/>
<path d="M5157 3435 c-5 -11 0 -15 19 -15 16 0 24 5 22 13 -7 18 -35 20 -41 2z"/>
<path d="M5210 3435 c0 -17 2 -18 24 -9 23 9 20 24 -4 24 -11 0 -20 -7 -20
-15z"/>
<path d="M5267 3444 c-8 -8 1 -24 14 -24 5 0 9 7 9 15 0 15 -12 20 -23 9z"/>
<path d="M5310 3439 c0 -5 5 -7 10 -4 6 4 17 1 25 -5 12 -10 15 -9 15 4 0 10
-9 16 -25 16 -14 0 -25 -5 -25 -11z"/>
<path d="M5530 3436 c0 -12 10 -16 37 -16 36 0 37 1 19 18 -14 13 -20 14 -23
4 -4 -10 -8 -10 -19 -1 -11 9 -14 8 -14 -5z"/>
<path d="M5606 3435 c4 -8 13 -15 21 -15 13 0 13 3 3 15 -7 8 -16 15 -21 15
-5 0 -6 -7 -3 -15z"/>
<path d="M5925 3441 c-3 -5 -2 -12 3 -15 5 -3 9 1 9 9 0 17 -3 19 -12 6z"/>
<path d="M5957 3444 c-10 -11 -9 -24 4 -24 5 0 7 5 4 10 -3 6 -1 10 4 10 6 0
11 -4 11 -8 0 -4 9 -8 21 -9 29 -3 18 21 -12 25 -14 2 -28 0 -32 -4z"/>
<path d="M6060 3434 c0 -8 5 -14 11 -14 6 0 17 6 24 14 12 11 10 14 -11 14
-14 0 -24 -6 -24 -14z"/>
<path d="M120 3430 c0 -5 5 -10 11 -10 5 0 7 5 4 10 -3 6 -8 10 -11 10 -2 0
-4 -4 -4 -10z"/>
<path d="M3080 3430 c0 -5 5 -10 10 -10 6 0 10 5 10 10 0 6 -4 10 -10 10 -5 0
-10 -4 -10 -10z"/>
<path d="M2145 3310 c-64 -21 -95 -66 -95 -135 0 -70 25 -105 109 -154 64 -38
111 -81 111 -102 0 -15 -39 -49 -55 -49 -25 0 -65 47 -65 76 0 25 -2 26 -37
20 -21 -3 -46 -6 -55 -6 -24 0 -24 -54 0 -99 26 -49 73 -71 150 -71 112 0 172
51 172 145 0 70 -28 107 -120 161 -89 51 -103 64 -98 95 4 29 29 43 61 35 20
-5 29 -16 38 -47 9 -27 17 -38 27 -34 7 3 30 5 49 5 l36 0 -6 42 c-6 48 -33
88 -70 106 -36 17 -115 24 -152 12z"/>
<path d="M82 3053 l3 -258 125 1 c147 1 182 13 207 72 31 74 4 160 -57 184
l-25 10 27 14 c37 20 48 43 48 107 0 102 -43 127 -223 127 l-107 0 2 -257z
m206 145 c15 -13 16 -52 2 -79 -8 -14 -21 -19 -50 -19 l-40 0 0 53 c0 30 2 56
5 59 8 7 68 -3 83 -14z m0 -190 c16 -16 16 -90 0 -106 -7 -7 -29 -12 -50 -12
l-38 0 0 65 0 65 38 0 c21 0 43 -5 50 -12z"/>
<path d="M462 3053 l3 -258 55 0 55 0 3 108 c3 104 3 107 26 107 36 0 53 -29
65 -114 6 -44 16 -85 21 -91 14 -16 240 -18 245 -2 2 7 6 25 9 40 6 27 8 28
68 25 59 -3 61 -4 72 -38 11 -34 13 -35 69 -38 50 -3 57 -1 57 15 -1 10 -27
126 -58 258 l-58 240 -76 3 -76 3 -30 -128 c-17 -70 -43 -182 -58 -248 -15
-66 -29 -122 -31 -124 -10 -13 -25 24 -38 95 -21 108 -23 112 -52 128 l-26 13
29 14 c65 31 82 146 30 202 -33 35 -84 47 -204 47 l-102 0 2 -257z m206 145
c14 -14 16 -66 4 -86 -5 -7 -26 -13 -48 -15 l-39 -2 -3 58 -3 57 39 0 c21 0
43 -5 50 -12z m384 -240 c-5 -11 -82 -10 -82 1 0 5 6 42 14 82 8 41 18 92 22
114 6 37 8 31 28 -75 12 -63 20 -118 18 -122z"/>
<path d="M1245 3298 c-3 -7 -4 -124 -3 -258 l3 -245 55 0 55 0 -2 170 -1 170
28 -80 c37 -108 90 -238 100 -249 4 -4 34 -9 67 -10 l58 -1 3 258 2 257 -55 0
-55 0 0 -167 -1 -168 -33 90 c-18 50 -46 124 -62 165 l-29 75 -63 3 c-44 2
-64 -1 -67 -10z"/>
<path d="M1662 3053 l3 -258 112 2 c122 3 156 13 192 58 31 40 44 121 39 232
-9 180 -58 223 -256 223 l-92 0 2 -257z m216 127 c9 -17 12 -61 10 -143 -3
-133 -11 -147 -75 -147 l-33 0 0 161 0 160 42 -3 c34 -2 45 -8 56 -28z"/>
<path d="M2522 3053 l3 -258 55 0 55 0 0 255 0 255 -58 3 -57 3 2 -258z"/>
<path d="M2680 3250 l0 -60 31 0 c39 0 37 -29 -4 -48 -20 -10 -27 -20 -25 -35
4 -29 35 -32 76 -7 41 25 52 54 52 141 l0 69 -65 0 -65 0 0 -60z"/>
<path d="M2837 3303 c-3 -7 103 -463 116 -496 6 -16 132 -24 141 -9 6 10 116
485 116 502 0 7 -20 10 -57 8 l-58 -3 -27 -150 c-46 -253 -41 -235 -45 -200
-6 52 -55 309 -64 333 -7 19 -16 22 -63 22 -30 0 -57 -3 -59 -7z"/>
<path d="M3242 3053 l3 -258 140 0 140 0 3 48 3 47 -86 0 -86 0 3 63 3 62 73
3 72 3 0 39 0 40 -75 0 -75 0 0 55 0 55 80 0 80 0 0 50 0 50 -140 0 -140 0 2
-257z"/>
<path d="M772 2699 c-158 -78 -158 -413 0 -495 42 -22 110 -18 149 9 19 12 48
47 64 77 28 51 30 62 30 160 0 94 -3 110 -27 155 -30 59 -51 79 -101 100 -48
20 -64 19 -115 -6z m121 -33 c84 -78 113 -283 55 -387 -56 -100 -162 -88 -213
24 -47 104 -52 236 -10 316 36 71 118 94 168 47z"/>
<path d="M60 2700 c0 -5 9 -10 20 -10 27 0 30 -9 90 -240 65 -247 70 -262 83
-257 6 2 30 77 53 168 23 90 44 157 47 149 3 -8 20 -84 38 -167 20 -93 37
-153 45 -153 6 0 25 51 42 118 17 64 46 173 64 242 27 103 37 127 56 135 37
17 25 25 -38 25 -33 0 -60 -4 -60 -10 0 -5 9 -10 19 -10 39 0 41 11 -60 -374
-6 -21 -12 -36 -14 -34 -9 9 -85 390 -79 399 3 5 16 9 30 9 14 0 22 4 19 10
-7 12 -145 14 -145 2 0 -4 10 -12 22 -17 15 -7 26 -25 34 -57 10 -42 8 -60
-25 -197 -20 -83 -38 -151 -41 -151 -7 0 -101 369 -100 393 0 11 8 17 25 17
14 0 25 5 25 10 0 6 -32 10 -75 10 -43 0 -75 -4 -75 -10z"/>
<path d="M1060 2701 c0 -5 14 -11 30 -14 l30 -6 0 -225 c0 -234 -1 -238 -45
-249 -11 -2 18 -5 65 -5 47 0 76 3 65 5 -41 10 -45 22 -45 130 l0 104 28 -3
c23 -3 35 -17 84 -112 31 -60 63 -113 70 -117 7 -5 29 -9 48 -9 l35 0 -32 20
c-23 14 -45 44 -74 102 -23 46 -48 90 -56 99 -13 15 -9 19 30 38 58 28 82 71
75 136 -7 57 -38 92 -94 105 -50 12 -214 13 -214 1z m235 -44 c17 -14 28 -36
31 -62 11 -80 -32 -128 -115 -129 l-46 -1 -3 94 c-1 52 -1 100 2 108 9 23 101
17 131 -10z"/>
<path d="M1430 2700 c0 -5 11 -10 25 -10 14 0 29 -8 35 -19 6 -12 10 -102 10
-225 0 -219 -4 -236 -51 -236 -11 0 -18 -3 -16 -7 3 -5 43 -6 89 -4 70 3 78 5
50 13 l-32 9 2 232 3 232 28 3 c15 2 27 8 27 13 0 5 -38 9 -85 9 -50 0 -85 -4
-85 -10z"/>
<path d="M1660 2700 c0 -5 9 -10 19 -10 11 0 22 -4 26 -9 3 -5 -29 -54 -70
-109 -41 -54 -75 -103 -75 -107 0 -4 36 -57 81 -118 44 -60 78 -115 75 -122
-3 -8 -15 -15 -28 -18 -13 -2 18 -5 67 -5 88 -1 89 -1 55 14 -26 11 -58 46
-122 134 -49 66 -88 124 -88 129 0 11 135 182 157 199 9 6 27 12 41 12 13 0
20 4 17 10 -3 6 -40 10 -81 10 -43 0 -74 -4 -74 -10z"/>
<path d="M1855 2700 c-3 -6 4 -10 18 -10 45 0 48 -13 45 -246 l-3 -219 -33
-11 c-18 -5 -31 -12 -28 -15 2 -2 73 -2 157 1 l153 5 18 60 c9 32 14 62 11 65
-3 3 -8 0 -10 -6 -2 -6 -14 -31 -26 -55 l-22 -44 -85 0 -85 0 -3 113 -3 112
65 0 c67 0 76 -6 76 -52 0 -12 3 -18 8 -14 10 11 11 156 1 156 -5 0 -9 -9 -9
-19 0 -35 -27 -51 -86 -51 l-54 0 0 105 0 105 84 0 c93 0 100 -4 110 -64 9
-49 21 -38 18 17 -6 82 4 77 -162 77 -88 0 -151 -4 -155 -10z"/>
<path d="M2220 2700 c0 -5 11 -10 25 -10 14 0 29 -8 35 -19 12 -23 14 -420 1
-439 -4 -7 -21 -17 -37 -22 -21 -6 3 -9 84 -9 124 -1 166 10 215 57 54 51 72
98 72 192 0 75 -3 90 -28 133 -35 60 -93 102 -158 116 -64 14 -209 14 -209 1z
m233 -34 c41 -17 91 -73 108 -123 7 -21 13 -67 13 -103 0 -131 -72 -214 -183
-215 l-56 0 -3 228 -2 227 45 0 c25 0 60 -6 78 -14z"/>
<path d="M2770 2700 c0 -5 9 -10 19 -10 11 0 23 -5 26 -10 4 -6 35 -116 69
-245 35 -129 66 -238 70 -242 14 -14 25 17 61 171 22 91 41 152 45 145 4 -8
23 -83 41 -166 19 -91 37 -153 44 -153 7 0 39 101 76 243 55 209 67 243 87
252 37 17 25 25 -38 25 -33 0 -60 -4 -60 -10 0 -5 9 -10 19 -10 11 0 23 -4 26
-10 3 -5 -13 -81 -35 -167 -23 -87 -46 -175 -51 -197 -6 -21 -12 -36 -14 -34
-10 9 -85 389 -80 398 3 6 17 10 31 10 14 0 22 4 19 10 -7 12 -145 14 -145 2
0 -4 10 -12 22 -17 15 -7 26 -25 33 -55 10 -40 7 -62 -24 -197 -20 -84 -38
-153 -41 -153 -6 0 -101 369 -100 393 0 11 8 17 25 17 14 0 25 5 25 10 0 6
-32 10 -75 10 -43 0 -75 -4 -75 -10z"/>
<path d="M3350 2700 c0 -5 10 -10 23 -10 45 0 47 -12 47 -234 0 -116 -4 -217
-9 -224 -4 -7 -21 -17 -37 -22 -21 -6 -6 -8 61 -8 73 0 84 2 57 9 l-32 10 2
232 3 232 28 3 c15 2 27 8 27 13 0 5 -38 9 -85 9 -50 0 -85 -4 -85 -10z"/>
<path d="M3556 2702 c-7 -12 -10 -111 -3 -118 3 -4 9 12 13 34 8 54 22 64 81
60 l48 -3 3 -205 c1 -113 0 -215 -3 -227 -3 -15 -17 -26 -38 -32 -26 -7 -14
-9 58 -9 72 0 84 2 58 9 l-33 10 0 229 0 230 49 0 c54 0 68 -10 77 -58 11 -54
27 -37 19 21 -4 28 -9 55 -12 60 -6 9 -310 9 -317 -1z"/>
<path d="M3910 2700 c0 -5 10 -10 23 -10 45 0 47 -12 47 -234 0 -116 -4 -217
-9 -224 -4 -7 -21 -17 -37 -22 -21 -6 -6 -8 61 -8 73 0 84 2 58 9 l-33 10 0
119 0 120 105 0 105 0 0 -120 0 -119 -32 -10 c-27 -7 -16 -9 57 -9 67 0 82 2
61 8 -16 5 -33 15 -37 22 -13 19 -11 416 1 439 6 11 21 19 35 19 14 0 25 5 25
10 0 6 -35 10 -85 10 -47 0 -85 -4 -85 -9 0 -5 12 -11 28 -13 l27 -3 3 -102 3
-103 -106 0 -106 0 3 103 3 102 28 3 c15 2 27 8 27 13 0 5 -38 9 -85 9 -50 0
-85 -4 -85 -10z"/>
<path d="M5558 1605 c-7 -9 -19 -22 -25 -30 -16 -16 -17 -35 -3 -35 6 0 10
-16 10 -35 0 -24 -5 -35 -15 -35 -8 0 -15 -4 -15 -10 0 -5 25 -10 56 -10 34 0
53 4 49 10 -3 6 -15 10 -26 10 -15 0 -19 7 -19 35 l0 35 55 0 55 0 0 -35 c0
-24 -5 -35 -15 -35 -8 0 -15 -4 -15 -10 0 -5 23 -10 50 -10 28 0 50 5 50 10 0
6 -9 10 -19 10 -17 0 -20 8 -23 48 l-3 47 -67 3 c-65 3 -92 17 -45 24 12 2 22
8 22 13 0 17 -42 17 -57 0z"/>
<path d="M348 1600 c-1 -5 -2 -41 0 -79 4 -69 4 -69 35 -74 46 -7 77 15 77 57
0 42 -29 71 -65 62 -20 -5 -25 -3 -25 13 0 22 -16 37 -22 21z m81 -112 c-6
-12 -18 -18 -32 -16 -29 4 -36 47 -10 65 16 12 20 11 35 -7 14 -17 15 -26 7
-42z"/>
<path d="M710 1585 c0 -22 -3 -25 -25 -19 -36 9 -65 -20 -65 -62 0 -42 31 -64
78 -57 l32 5 0 79 c0 46 -4 79 -10 79 -5 0 -10 -11 -10 -25z m-2 -83 c-4 -33
-36 -42 -55 -16 -17 23 -16 29 3 48 23 24 56 3 52 -32z"/>
<path d="M1409 1598 c-1 -7 -1 -19 0 -26 2 -9 -6 -11 -24 -6 -36 9 -65 -19
-65 -62 0 -42 31 -64 78 -57 l32 5 0 74 c0 40 -4 76 -10 79 -5 3 -11 0 -11 -7z
m-4 -78 c9 -27 -5 -50 -30 -50 -34 0 -46 38 -20 64 18 18 42 11 50 -14z"/>
<path d="M1502 1599 c2 -6 8 -10 13 -10 5 0 11 4 13 10 2 6 -4 11 -13 11 -9 0
-15 -5 -13 -11z"/>
<path d="M3276 1603 c-3 -3 -6 -39 -6 -80 0 -58 3 -73 15 -73 11 0 15 11 15
40 0 29 5 42 20 50 15 8 21 6 30 -10 6 -12 10 -33 8 -47 -2 -15 3 -28 10 -30
8 -3 12 10 12 46 0 40 -4 52 -20 61 -12 6 -30 8 -40 5 -15 -5 -20 -2 -20 14 0
21 -13 35 -24 24z"/>
<path d="M3985 1601 c-3 -6 1 -14 9 -17 12 -5 16 -20 16 -60 0 -47 -2 -54 -20
-54 -11 0 -20 -4 -20 -10 0 -5 25 -10 55 -10 30 0 55 5 55 10 0 6 -9 10 -20
10 -17 0 -19 8 -22 68 -3 60 -5 67 -25 70 -11 2 -24 -2 -28 -7z"/>
<path d="M4125 1601 c-3 -6 1 -14 9 -17 12 -5 16 -20 16 -60 0 -47 -2 -54 -20
-54 -11 0 -20 -4 -20 -10 0 -5 25 -10 55 -10 30 0 55 5 55 10 0 6 -9 10 -20
10 -17 0 -19 8 -22 68 -3 60 -5 67 -25 70 -11 2 -24 -2 -28 -7z"/>
<path d="M102 1583 c-6 -10 -15 -37 -22 -61 -6 -24 -14 -50 -17 -58 -3 -8 1
-14 10 -14 8 0 17 7 21 15 7 20 46 19 62 -2 23 -32 26 -6 6 64 -19 70 -42 91
-60 56z m32 -74 c-3 -5 -9 -9 -15 -9 -11 0 -12 43 -2 54 9 9 25 -33 17 -45z"/>
<path d="M1045 1588 c-2 -7 -6 -41 -8 -75 -4 -50 -2 -63 9 -63 10 0 14 13 14
43 0 31 3 38 10 27 5 -8 10 -27 10 -42 0 -45 28 -34 38 15 l9 42 7 -42 c4 -24
12 -43 17 -43 10 0 12 72 3 119 -9 41 -38 38 -42 -4 -5 -47 -19 -50 -26 -6 -6
40 -31 58 -41 29z"/>
<path d="M2195 1588 c-3 -8 -14 -42 -24 -76 -15 -48 -16 -62 -6 -62 7 0 15 7
19 15 3 8 17 15 31 15 14 0 28 -7 31 -15 4 -8 12 -15 19 -15 21 0 -26 144 -48
148 -9 2 -19 -3 -22 -10z m35 -70 c0 -10 -7 -18 -15 -18 -16 0 -19 17 -9 45 5
13 8 14 15 3 5 -7 9 -21 9 -30z"/>
<path d="M2743 1580 c-24 -19 -30 -40 -13 -40 6 0 10 -15 10 -33 0 -18 5 -38
12 -45 14 -14 68 -16 68 -2 0 6 -11 10 -25 10 -22 0 -25 4 -25 34 0 26 5 35
21 39 22 6 18 27 -6 27 -7 0 -15 6 -17 14 -2 12 -7 11 -25 -4z"/>
<path d="M3703 1574 c-21 -21 -24 -32 -19 -62 10 -64 67 -88 114 -50 21 18 11
62 -15 66 -24 4 -33 -23 -11 -30 17 -6 0 -28 -22 -28 -39 0 -53 65 -20 95 19
17 21 17 39 1 29 -27 50 -15 23 12 -29 29 -57 28 -89 -4z"/>
<path d="M5090 1524 l0 -75 46 3 c54 3 77 26 58 56 -8 12 -8 22 0 35 15 25
-24 57 -70 57 l-34 0 0 -76z m76 35 c7 -12 -12 -29 -33 -29 -7 0 -13 9 -13 20
0 22 34 28 46 9z m2 -66 c-2 -10 -13 -19 -26 -21 -17 -3 -22 2 -22 17 0 16 6
21 26 21 19 0 25 -5 22 -17z"/>
<path d="M5802 1575 c-19 -20 -20 -25 -8 -32 8 -4 16 -26 18 -48 3 -38 5 -40
41 -43 21 -2 37 1 37 7 0 6 -11 11 -25 11 -22 0 -25 4 -25 35 0 24 5 35 15 35
21 0 18 11 -8 37 l-23 21 -22 -23z"/>
<path d="M204 1561 c-2 -2 -4 -28 -4 -58 0 -40 4 -53 15 -53 11 0 15 12 15 45
0 25 5 45 10 45 6 0 10 -20 10 -45 0 -57 18 -59 22 -3 4 59 28 63 28 4 0 -26
5 -46 10 -46 7 0 10 22 8 58 l-3 57 -53 0 c-30 0 -55 -2 -58 -4z"/>
<path d="M500 1550 c-55 -55 13 -137 77 -95 31 21 17 44 -14 24 -24 -15 -53
-6 -53 16 0 10 8 15 23 14 40 -4 67 1 67 11 0 17 -39 50 -60 50 -11 0 -29 -9
-40 -20z m60 -10 c16 -10 13 -12 -20 -12 -33 0 -36 2 -20 12 8 5 17 10 20 10
3 0 12 -5 20 -10z"/>
<path d="M777 1552 c-26 -28 -22 -78 8 -98 29 -19 60 -11 81 21 39 60 -42 130
-89 77z m71 -50 c-2 -20 -9 -28 -27 -30 -38 -6 -54 33 -25 62 23 24 56 3 52
-32z"/>
<path d="M1202 1554 c-31 -22 -30 -78 2 -99 27 -18 74 -11 83 12 8 21 -3 26
-26 11 -15 -9 -26 -10 -37 -3 -20 13 -14 30 11 31 60 2 64 4 58 22 -14 41 -54
53 -91 26z m55 -20 c3 -9 -17 -11 -47 -5 -3 1 2 6 10 11 17 11 32 8 37 -6z"/>
<path d="M1480 1556 c0 -9 5 -16 10 -16 6 0 10 -16 10 -35 0 -28 -4 -35 -20
-35 -11 0 -20 -4 -20 -10 0 -5 25 -10 55 -10 30 0 55 5 55 10 0 6 -9 10 -19
10 -17 0 -20 8 -23 48 -3 40 -6 47 -25 50 -16 2 -23 -2 -23 -12z"/>
<path d="M1614 1556 c-26 -19 -10 -33 20 -17 24 13 46 8 46 -10 0 -5 -9 -9
-21 -9 -31 0 -59 -19 -59 -40 0 -26 27 -38 73 -33 36 5 37 6 37 48 0 65 -48
96 -96 61z m64 -68 c-5 -15 -48 -24 -48 -10 0 14 12 22 33 22 10 0 17 -5 15
-12z"/>
<path d="M2305 1561 c-3 -2 -5 -37 -5 -78 0 -58 3 -73 15 -73 9 0 15 9 15 21
0 15 4 19 16 15 21 -8 53 11 63 37 12 31 -7 76 -32 81 -26 5 -66 3 -72 -3z
m85 -49 c-1 -50 -53 -57 -58 -8 -2 16 2 32 9 37 18 11 49 -8 49 -29z"/>
<path d="M2459 1560 c-25 -15 -32 -58 -15 -85 35 -54 106 -34 106 30 0 51 -49
80 -91 55z m66 -40 c10 -30 -5 -51 -34 -48 -19 2 -27 10 -29 27 -7 45 50 64
63 21z"/>
<path d="M2596 1554 c-9 -8 -16 -19 -16 -23 0 -13 23 -29 53 -36 15 -4 27 -11
27 -15 0 -16 -28 -18 -49 -3 -31 21 -41 6 -12 -18 29 -24 43 -24 71 -1 28 23
20 39 -28 59 -26 11 -32 17 -23 26 9 9 17 8 32 -1 27 -17 40 -5 15 14 -26 18
-51 18 -70 -2z"/>
<path d="M2864 1561 c-2 -2 -4 -28 -4 -58 0 -40 4 -53 15 -53 11 0 15 11 15
38 0 21 5 43 11 49 14 14 39 6 39 -14 0 -15 22 -13 27 3 7 22 -18 38 -57 39
-23 0 -43 -1 -46 -4z"/>
<path d="M3012 1554 c-48 -34 -11 -123 46 -109 52 12 69 68 32 105 -24 24 -48
25 -78 4z m58 -18 c6 -8 10 -25 8 -38 -2 -17 -10 -23 -28 -23 -18 0 -26 6 -28
23 -3 22 13 52 28 52 4 0 13 -7 20 -14z"/>
<path d="M3134 1561 c-2 -2 -4 -37 -4 -78 0 -58 3 -73 15 -73 8 0 15 9 15 20
0 17 5 19 24 14 30 -7 66 25 66 59 0 40 -24 61 -70 62 -22 0 -43 -1 -46 -4z
m76 -25 c6 -8 10 -25 8 -38 -2 -17 -10 -23 -28 -23 -18 0 -26 6 -28 23 -3 22
13 52 28 52 4 0 13 -7 20 -14z"/>
<path d="M3432 1554 c-32 -22 -30 -78 3 -100 21 -14 30 -14 55 -4 17 7 30 19
30 26 0 16 -16 19 -25 4 -3 -5 -17 -10 -31 -10 -22 0 -26 5 -23 28 1 4 6 6 11
4 6 -2 24 0 39 3 34 8 39 39 10 55 -27 14 -43 13 -69 -6z m55 -20 c3 -9 -17
-11 -47 -5 -3 1 2 6 10 11 17 11 32 8 37 -6z"/>
<path d="M3844 1556 c-26 -19 -10 -33 20 -17 24 13 46 8 46 -10 0 -5 -11 -9
-24 -9 -24 0 -56 -23 -56 -40 0 -19 34 -41 54 -36 12 3 29 6 39 6 13 0 17 9
17 43 0 67 -48 98 -96 63z m64 -68 c-5 -15 -48 -24 -48 -10 0 14 12 22 33 22
10 0 17 -5 15 -12z"/>
<path d="M4267 1558 c-9 -7 -19 -25 -22 -40 -5 -21 -1 -33 19 -52 14 -15 32
-26 39 -26 20 0 64 37 55 46 -4 4 -14 1 -22 -5 -8 -7 -25 -11 -38 -9 -32 4
-30 33 2 34 52 2 60 4 60 17 0 20 -33 47 -56 47 -11 0 -28 -6 -37 -12z m60
-24 c2 -7 -7 -11 -22 -11 -25 0 -31 7 -18 21 10 10 36 3 40 -10z"/>
<path d="M4394 1561 c-2 -2 -4 -28 -4 -58 0 -39 4 -53 14 -53 10 0 16 14 18
43 2 35 7 43 26 45 15 2 22 -2 22 -12 0 -9 7 -16 15 -16 17 0 19 18 5 40 -8
13 -84 22 -96 11z"/>
<path d="M4527 1564 c-3 -3 5 -29 17 -57 25 -57 24 -77 -5 -77 -10 0 -19 -4
-19 -10 0 -5 12 -10 26 -10 22 0 30 10 58 73 19 39 31 76 29 80 -7 13 -30 -11
-37 -38 -4 -14 -11 -25 -16 -25 -5 0 -12 11 -16 25 -6 26 -27 48 -37 39z"/>
<path d="M5240 1550 c-53 -53 14 -136 75 -96 28 18 33 36 10 36 -8 0 -15 -5
-15 -11 0 -6 -12 -9 -27 -7 -36 4 -38 33 -3 34 52 2 60 4 60 17 0 20 -33 47
-58 47 -12 0 -31 -9 -42 -20z m60 -10 c8 -5 13 -10 10 -11 -43 -8 -60 -2 -43
14 9 9 15 9 33 -3z"/>
<path d="M5380 1550 c-56 -56 19 -141 81 -91 29 24 18 39 -15 21 -27 -14 -60
-7 -53 13 2 6 15 12 28 13 52 2 59 5 59 18 0 18 -38 46 -62 46 -10 0 -27 -9
-38 -20z m60 -10 c8 -5 13 -10 10 -11 -43 -8 -60 -2 -43 14 9 9 15 9 33 -3z"/>
<path d="M1906 1523 c-14 -15 -3 -23 30 -23 24 0 34 4 32 12 -5 13 -52 21 -62
11z"/>
<path d="M4835 1522 c-14 -14 -2 -23 28 -20 17 2 32 8 32 13 0 10 -51 16 -60
7z"/>
<path d="M6086 1523 c-11 -12 6 -23 35 -23 19 0 29 5 27 11 -4 13 -52 21 -62
12z"/>
<path d="M2493 1333 c-7 -2 -13 -11 -13 -18 0 -8 -8 -19 -17 -24 -15 -9 -16
-12 -4 -20 21 -14 20 -73 -1 -79 -37 -9 -16 -22 37 -22 30 0 55 5 55 10 0 6
-11 10 -25 10 -22 0 -25 4 -25 35 0 28 5 38 23 45 l22 9 -23 7 c-28 8 -24 28
6 32 12 2 22 8 22 13 0 9 -36 11 -57 2z"/>
<path d="M250 1320 c0 -5 7 -10 15 -10 8 0 15 5 15 10 0 6 -7 10 -15 10 -8 0
-15 -4 -15 -10z"/>
<path d="M989 1323 c-1 -5 -1 -16 0 -25 2 -14 -3 -17 -27 -12 -37 8 -62 -16
-62 -60 0 -43 17 -56 69 -54 l41 1 0 79 c0 45 -4 78 -10 78 -5 0 -11 -3 -11
-7z m-7 -78 c10 -21 9 -29 -5 -43 -31 -31 -75 19 -47 53 19 22 39 18 52 -10z"/>
<path d="M2900 1320 c0 -5 7 -10 15 -10 8 0 15 5 15 10 0 6 -7 10 -15 10 -8 0
-15 -4 -15 -10z"/>
<path d="M3010 1321 c0 -5 7 -11 15 -15 11 -4 15 -21 15 -61 0 -48 -2 -55 -20
-55 -11 0 -20 -4 -20 -10 0 -5 25 -10 55 -10 54 0 77 15 33 22 -21 3 -23 9
-26 71 -3 64 -4 67 -27 67 -14 0 -25 -4 -25 -9z"/>
<path d="M3137 1323 c-4 -3 -7 -39 -7 -80 0 -58 3 -73 15 -73 9 0 15 9 15 25
0 14 6 25 13 25 8 0 19 -11 25 -25 6 -14 19 -25 28 -25 14 0 13 5 -5 36 -21
35 -21 38 -5 55 26 29 8 36 -26 10 l-30 -22 0 41 c0 38 -8 49 -23 33z"/>
<path d="M3850 1321 c0 -6 5 -13 10 -16 6 -3 10 -31 10 -61 0 -47 -2 -54 -20
-54 -11 0 -20 -4 -20 -10 0 -5 25 -10 55 -10 30 0 55 5 55 10 0 6 -9 10 -20
10 -18 0 -20 7 -20 70 0 68 -1 70 -25 70 -14 0 -25 -4 -25 -9z"/>
<path d="M70 1244 l0 -75 46 3 c54 3 77 26 57 56 -7 12 -8 24 -2 33 12 19 11
25 -7 43 -9 9 -32 16 -55 16 l-39 0 0 -76z m69 47 c18 -11 5 -31 -20 -31 -12
0 -19 7 -19 20 0 21 16 26 39 11z m9 -78 c-2 -10 -13 -19 -26 -21 -17 -3 -22
2 -22 17 0 16 6 21 26 21 19 0 25 -5 22 -17z"/>
<path d="M366 1298 c-13 -14 -15 -23 -8 -26 7 -2 12 -20 12 -41 0 -44 14 -61
52 -61 33 0 38 17 6 22 -18 2 -24 11 -26 36 -2 22 2 34 12 38 20 8 21 24 1 24
-8 0 -15 7 -15 15 0 21 -12 19 -34 -7z"/>
<path d="M1600 1245 l0 -75 39 0 c72 0 106 76 56 125 -16 17 -35 25 -60 25
l-35 0 0 -75z m68 39 c26 -18 29 -56 6 -78 -31 -31 -44 -20 -44 39 0 59 4 63
38 39z"/>
<path d="M2716 1283 c-3 -21 -6 -55 -6 -76 0 -51 23 -44 30 9 l5 39 8 -43 c9
-50 28 -52 38 -3 10 48 19 50 19 3 0 -32 4 -42 16 -42 14 0 15 7 10 38 -3 20
-6 54 -6 75 0 29 -4 37 -19 37 -13 0 -21 -11 -28 -42 l-10 -43 -7 30 c-13 51
-15 55 -29 55 -9 0 -17 -15 -21 -37z"/>
<path d="M3557 1313 c-4 -3 -7 -37 -7 -75 0 -52 3 -68 14 -68 8 0 16 12 18 27
4 37 20 38 40 3 9 -17 24 -30 33 -30 13 0 11 8 -11 46 l-27 45 22 23 c24 25
26 36 9 36 -7 0 -25 -14 -40 -32 l-27 -33 -1 33 c0 30 -9 40 -23 25z"/>
<path d="M4950 1245 l0 -75 38 0 c49 0 76 27 76 77 0 44 -32 73 -80 73 l-34 0
0 -75z m68 39 c27 -19 28 -55 3 -78 -30 -27 -45 -15 -47 35 -2 64 5 71 44 43z"/>
<path d="M5246 1297 c-13 -14 -16 -22 -8 -25 7 -2 12 -17 12 -33 0 -47 17 -69
50 -69 35 0 41 17 8 22 -34 5 -39 64 -6 78 l23 9 -22 7 c-13 3 -23 13 -23 20
0 19 -11 16 -34 -9z"/>
<path d="M220 1282 c0 -6 7 -12 15 -16 9 -3 15 -19 15 -41 0 -28 -4 -35 -20
-35 -11 0 -20 -4 -20 -10 0 -5 25 -10 55 -10 59 0 69 6 33 19 -17 6 -22 16
-22 52 -1 40 -3 44 -28 47 -16 2 -28 -1 -28 -6z"/>
<path d="M483 1274 c-9 -24 2 -137 15 -142 7 -2 12 6 12 20 0 22 4 24 32 20
22 -3 35 0 45 14 18 25 16 68 -4 87 -21 18 -93 19 -100 1z m75 -13 c8 -5 12
-21 10 -37 -2 -23 -8 -29 -28 -29 -18 0 -26 6 -28 23 -3 22 13 52 27 52 3 0
12 -4 19 -9z"/>
<path d="M634 1273 c-20 -20 -1 -32 21 -13 16 13 45 7 45 -10 0 -5 -10 -10
-22 -10 -34 0 -50 -15 -46 -41 3 -21 8 -24 51 -25 l47 -1 0 47 c0 25 -5 51
-12 58 -17 17 -64 15 -84 -5z m64 -65 c-5 -15 -48 -24 -48 -10 0 14 12 22 33
22 10 0 17 -5 15 -12z"/>
<path d="M764 1281 c-2 -2 -4 -28 -4 -58 0 -40 4 -53 15 -53 11 0 15 11 15 39
0 46 22 70 45 51 10 -8 14 -26 13 -48 -2 -21 2 -37 10 -39 17 -6 16 91 -1 105
-12 10 -83 12 -93 3z"/>
<path d="M1054 1276 c-24 -18 -13 -31 14 -15 21 13 52 7 52 -11 0 -5 -10 -10
-23 -10 -13 0 -32 -6 -43 -14 -32 -24 -7 -51 50 -53 l46 -2 0 44 c0 67 -47 97
-96 61z m64 -68 c-5 -15 -48 -24 -48 -10 0 14 12 22 33 22 10 0 17 -5 15 -12z"/>
<path d="M1754 1276 c-24 -18 -13 -31 14 -15 21 13 52 7 52 -11 0 -5 -10 -10
-23 -10 -13 0 -32 -6 -43 -14 -32 -24 -7 -51 50 -53 l46 -2 0 44 c0 67 -47 97
-96 61z m64 -68 c-5 -15 -48 -24 -48 -10 0 14 12 22 33 22 10 0 17 -5 15 -12z"/>
<path d="M1880 1281 c0 -5 9 -30 20 -55 22 -52 19 -71 -13 -81 -20 -6 -20 -8
-4 -12 10 -3 25 -2 33 1 13 5 52 81 69 135 11 35 -13 24 -34 -16 l-19 -38 -16
38 c-15 34 -36 50 -36 28z"/>
<path d="M2036 1275 c-21 -22 -10 -42 30 -55 40 -13 45 -30 9 -30 -14 0 -25 5
-25 10 0 6 -7 10 -15 10 -18 0 -19 -12 -3 -28 16 -16 73 -15 87 2 17 20 2 46
-30 53 -16 3 -32 10 -35 14 -9 15 25 22 41 9 20 -17 32 -5 15 15 -16 19 -54
19 -74 0z"/>
<path d="M2310 1270 c-39 -39 -12 -100 44 -100 40 0 56 15 56 55 0 58 -60 85
-100 45z m72 -25 c13 -29 -3 -55 -33 -55 -23 0 -36 44 -19 65 18 22 39 18 52
-10z"/>
<path d="M2876 1282 c-3 -6 1 -12 9 -16 9 -3 15 -19 15 -41 0 -28 -4 -35 -20
-35 -11 0 -20 -4 -20 -10 0 -5 25 -10 56 -10 34 0 53 4 49 10 -3 6 -12 10 -20
10 -9 0 -15 15 -17 48 -3 39 -6 47 -25 50 -11 2 -24 -1 -27 -6z"/>
<path d="M3287 1272 c-37 -40 -14 -102 37 -102 57 0 83 51 50 98 -19 27 -64
29 -87 4z m63 -16 c18 -23 8 -61 -17 -64 -27 -4 -44 25 -32 56 10 25 31 29 49
8z"/>
<path d="M3707 1272 c-21 -23 -22 -66 -1 -86 25 -26 94 -18 94 10 0 17 -5 17
-29 2 -22 -14 -51 -4 -51 17 0 11 11 15 45 15 49 0 53 5 29 38 -19 27 -64 29
-87 4z m68 -12 c4 -6 -7 -10 -25 -10 -18 0 -29 4 -25 10 3 6 15 10 25 10 10 0
22 -4 25 -10z"/>
<path d="M3987 1272 c-20 -22 -22 -73 -5 -90 17 -17 73 -15 88 3 18 21 6 29
-19 13 -15 -9 -26 -10 -37 -3 -29 18 -20 30 24 33 32 2 42 7 42 21 0 41 -63
57 -93 23z m58 -12 c4 -6 -5 -10 -20 -10 -15 0 -24 4 -20 10 3 6 12 10 20 10
8 0 17 -4 20 -10z"/>
<path d="M4105 1280 c-1 -3 -2 -27 -1 -54 1 -65 26 -77 26 -12 0 24 5 48 10
51 6 4 10 -13 10 -44 0 -39 4 -51 15 -51 11 0 15 12 15 44 0 25 5 48 10 51 6
4 10 -14 10 -45 0 -36 4 -50 12 -48 12 4 13 96 1 108 -6 7 -104 7 -108 0z"/>
<path d="M4265 1276 c-21 -15 -25 -67 -5 -90 16 -20 74 -21 90 -1 16 19 5 34
-12 17 -17 -17 -55 -15 -62 4 -9 24 -9 24 39 24 38 0 45 3 45 20 0 36 -59 52
-95 26z m60 -16 c4 -6 -5 -10 -20 -10 -15 0 -24 4 -20 10 3 6 12 10 20 10 8 0
17 -4 20 -10z"/>
<path d="M4390 1228 c0 -43 3 -59 13 -55 7 2 11 16 9 34 -3 32 21 67 42 60 6
-2 12 -25 14 -50 2 -33 7 -47 18 -47 10 0 14 12 14 43 0 59 -11 71 -65 73
l-45 2 0 -60z"/>
<path d="M5092 1233 l3 -58 49 0 49 0 0 55 c0 31 -5 56 -12 58 -7 2 -11 -11
-11 -36 0 -42 -20 -68 -45 -58 -10 4 -15 19 -15 51 0 25 -5 45 -10 45 -7 0
-10 -22 -8 -57z"/>
<path d="M5377 1272 c-37 -41 -11 -102 43 -102 36 0 60 23 60 59 0 54 -68 82
-103 43z m61 -11 c8 -5 12 -21 10 -37 -2 -23 -8 -29 -28 -29 -20 0 -26 6 -28
29 -3 25 10 46 28 46 3 0 11 -4 18 -9z"/>
<path d="M5507 1283 c-11 -10 -8 -72 3 -93 8 -15 20 -19 55 -18 l45 2 0 59 c0
42 -3 58 -12 54 -8 -2 -12 -16 -10 -33 4 -36 -19 -70 -42 -61 -11 5 -16 19
-16 52 0 42 -7 54 -23 38z"/>
<path d="M5650 1228 c0 -32 4 -58 10 -58 6 0 10 15 10 34 0 53 46 89 57 46 7
-25 23 -26 23 -1 0 27 -20 39 -62 38 l-38 -1 0 -58z"/>
<path d="M5799 1274 c-16 -20 -1 -46 31 -54 13 -3 25 -11 28 -18 4 -14 -34
-16 -43 -2 -9 15 -25 12 -25 -4 0 -28 69 -36 90 -11 18 22 5 45 -30 51 -16 4
-30 13 -30 20 0 17 14 18 40 2 26 -16 40 0 16 18 -26 19 -60 18 -77 -2z"/>
<path d="M1342 1238 c7 -20 68 -23 68 -4 0 12 -10 16 -36 16 -24 0 -34 -4 -32
-12z"/>
<path d="M4690 1235 c0 -12 8 -16 33 -13 17 2 32 8 32 13 0 6 -15 11 -32 13
-25 3 -33 -1 -33 -13z"/>
<path d="M6087 1244 c-12 -12 4 -24 34 -24 19 0 29 5 29 15 0 15 -50 22 -63 9z"/>
<path d="M396 1053 c-11 -11 -6 -23 9 -23 8 0 15 4 15 9 0 13 -16 22 -24 14z"/>
<path d="M2316 1053 c-11 -11 -6 -23 9 -23 8 0 15 4 15 9 0 13 -16 22 -24 14z"/>
<path d="M70 965 l0 -75 55 0 c30 0 55 5 55 10 0 6 -18 10 -40 10 -36 0 -40 3
-40 25 0 20 5 25 25 25 14 0 25 5 25 10 0 6 -11 10 -25 10 -18 0 -25 5 -25 20
0 17 7 20 40 20 22 0 40 5 40 10 0 6 -25 10 -55 10 l-55 0 0 -75z"/>
<path d="M934 1025 c-4 -8 -12 -15 -20 -15 -8 0 -14 -4 -14 -10 0 -5 7 -10 15
-10 11 0 15 -11 15 -38 0 -21 5 -43 12 -50 14 -14 68 -16 68 -2 0 6 -11 10
-24 10 -20 0 -24 6 -28 36 -3 29 -1 38 14 42 22 5 24 22 3 22 -8 0 -15 7 -15
15 0 8 -5 15 -10 15 -6 0 -13 -7 -16 -15z"/>
<path d="M1590 1025 c-19 -23 -7 -49 33 -68 39 -18 47 -34 21 -44 -8 -3 -25 4
-38 16 -28 26 -42 14 -20 -17 18 -26 65 -29 89 -6 24 24 15 47 -27 67 -21 10
-38 25 -38 33 0 19 37 18 48 -2 5 -10 14 -14 21 -9 19 11 -17 45 -49 45 -15 0
-33 -7 -40 -15z"/>
<path d="M3210 965 l0 -75 49 0 c62 0 77 18 19 22 -35 2 -43 7 -43 23 0 14 8
21 28 23 15 2 27 7 27 12 0 5 -12 10 -27 12 -46 5 -35 32 15 36 58 4 43 22
-19 22 l-49 0 0 -75z"/>
<path d="M3340 1028 c0 -7 8 -40 18 -73 14 -46 23 -61 39 -63 18 -3 24 6 38
55 9 32 18 66 21 76 3 10 0 17 -9 17 -9 0 -19 -19 -27 -47 -19 -70 -22 -71
-39 -13 -15 49 -41 80 -41 48z"/>
<path d="M3496 1024 c-49 -48 -20 -134 44 -134 35 0 60 31 60 75 0 64 -64 100
-104 59z m62 -16 c17 -17 15 -73 -3 -88 -34 -28 -68 27 -46 76 12 26 30 31 49
12z"/>
<path d="M3630 966 l0 -76 50 0 c58 0 68 17 13 22 l-38 3 0 59 c0 38 -4 61
-12 63 -10 4 -13 -15 -13 -71z"/>
<path d="M3760 1030 c0 -5 9 -10 20 -10 17 0 20 -7 20 -51 0 -42 -3 -52 -20
-56 -11 -3 -17 -9 -14 -14 7 -12 91 -11 99 1 3 6 -3 10 -14 10 -19 0 -21 6
-21 55 0 42 3 55 15 55 8 0 15 5 15 10 0 6 -22 10 -50 10 -27 0 -50 -4 -50
-10z"/>
<path d="M3890 1030 c0 -5 11 -10 25 -10 24 0 25 -2 25 -65 0 -51 3 -65 15
-65 12 0 15 14 15 65 0 58 2 65 20 65 11 0 20 5 20 10 0 6 -27 10 -60 10 -33
0 -60 -4 -60 -10z"/>
<path d="M4692 968 c3 -75 24 -108 30 -46 2 28 7 34 31 36 37 4 35 22 -3 22
-23 0 -30 4 -30 20 0 17 7 20 40 20 22 0 40 5 40 10 0 6 -25 10 -55 10 l-56 0
3 -72z"/>
<path d="M5390 965 l0 -75 36 0 c19 0 44 5 55 10 21 12 26 56 8 62 -9 3 -8 10
2 25 20 32 -3 53 -57 53 l-44 0 0 -75z m75 35 c0 -8 -10 -16 -22 -18 -18 -3
-23 2 -23 18 0 16 5 21 23 18 12 -2 22 -10 22 -18z m-6 -49 c19 -12 6 -41 -19
-41 -15 0 -20 7 -20 25 0 26 14 31 39 16z"/>
<path d="M5530 1031 c0 -5 9 -11 20 -14 16 -4 20 -14 20 -52 0 -38 -4 -48 -20
-52 -37 -10 -20 -23 30 -23 49 0 68 13 32 22 -25 7 -23 101 2 106 36 7 13 22
-34 22 -27 0 -50 -4 -50 -9z"/>
<path d="M5660 1031 c0 -5 10 -11 23 -13 20 -3 22 -9 25 -65 2 -35 7 -63 12
-63 5 0 10 28 12 63 3 56 5 62 26 65 46 7 20 22 -38 22 -33 0 -60 -4 -60 -9z"/>
<path d="M210 928 c0 -45 4 -78 10 -78 6 0 10 11 10 25 0 22 3 24 28 19 36 -7
62 16 62 56 0 40 -24 60 -71 58 l-39 -1 0 -79z m80 42 c12 -23 -2 -60 -23 -60
-32 0 -48 45 -25 68 18 18 36 15 48 -8z"/>
<path d="M360 1000 c0 -5 7 -10 15 -10 11 0 15 -11 15 -36 0 -27 -5 -37 -20
-41 -37 -10 -20 -23 30 -23 50 0 67 13 30 23 -16 4 -20 14 -20 51 0 42 -2 46
-25 46 -14 0 -25 -4 -25 -10z"/>
<path d="M496 988 c-9 -12 -16 -29 -16 -38 0 -53 70 -79 105 -40 16 17 16 20
2 20 -9 0 -19 -4 -22 -10 -10 -16 -42 -12 -49 6 -12 30 -6 53 15 59 12 4 26 2
32 -4 6 -6 18 -11 26 -11 11 0 10 4 -4 20 -24 27 -70 26 -89 -2z"/>
<path d="M637 992 c-10 -10 -17 -30 -17 -44 0 -52 69 -77 105 -38 20 22 6 27
-24 8 -22 -14 -51 -4 -51 17 0 11 11 15 45 15 49 0 53 5 29 38 -19 27 -64 29
-87 4z m68 -12 c4 -6 -7 -10 -25 -10 -18 0 -29 4 -25 10 3 6 15 10 25 10 10 0
22 -4 25 -10z"/>
<path d="M760 949 c0 -45 3 -59 14 -59 10 0 16 13 18 41 2 27 9 46 21 53 24
15 38 -7 35 -53 -2 -21 2 -36 10 -39 17 -5 16 92 -1 106 -7 6 -32 11 -55 10
l-42 0 0 -59z"/>
<path d="M1050 995 c-17 -21 -7 -29 18 -14 21 13 52 7 52 -11 0 -5 -13 -10
-29 -10 -36 0 -59 -25 -44 -48 7 -11 26 -18 57 -19 l46 -2 0 40 c0 58 -14 79
-54 79 -19 0 -39 -7 -46 -15z m70 -64 c0 -9 -24 -21 -41 -21 -5 0 -9 7 -9 15
0 9 9 15 25 15 14 0 25 -4 25 -9z"/>
<path d="M1180 949 c0 -46 3 -59 15 -59 11 0 15 11 15 38 0 57 41 87 54 40 4
-18 8 -20 18 -10 23 23 -4 47 -56 49 l-46 2 0 -60z"/>
<path d="M1727 992 c-37 -40 -9 -102 46 -102 25 0 63 27 52 38 -3 3 -16 0 -29
-8 -28 -15 -56 -8 -56 15 0 11 11 15 45 15 32 0 45 4 45 14 0 42 -73 62 -103
28z m68 -12 c4 -6 -7 -10 -25 -10 -18 0 -29 4 -25 10 3 6 15 10 25 10 10 0 22
-4 25 -10z"/>
<path d="M1866 994 c-21 -20 -20 -68 1 -89 11 -11 26 -15 45 -11 25 5 28 3 28
-19 0 -14 5 -25 10 -25 6 0 10 33 10 78 l0 79 -39 1 c-25 1 -46 -4 -55 -14z
m68 -26 c13 -21 -2 -51 -27 -56 -23 -5 -40 33 -27 59 13 23 38 22 54 -3z"/>
<path d="M1990 961 c0 -58 12 -71 68 -68 l42 1 0 59 c0 69 -23 77 -28 10 -2
-26 -9 -44 -18 -47 -26 -10 -34 3 -34 50 0 32 -4 44 -15 44 -11 0 -15 -12 -15
-49z"/>
<path d="M2146 995 c-9 -9 -16 -29 -16 -45 0 -63 79 -83 110 -27 13 24 13 30
0 55 -19 33 -69 42 -94 17z m68 -27 c8 -13 8 -23 0 -35 -17 -28 -42 -27 -55 1
-21 46 28 76 55 34z"/>
<path d="M2290 1000 c0 -5 5 -10 10 -10 6 0 10 -18 10 -40 0 -33 -3 -40 -20
-40 -11 0 -20 -4 -20 -10 0 -5 25 -10 55 -10 30 0 55 5 55 10 0 6 -9 10 -20
10 -17 0 -20 7 -20 50 0 47 -2 50 -25 50 -14 0 -25 -4 -25 -10z"/>
<path d="M2420 995 c-17 -21 -7 -29 18 -14 21 13 52 7 52 -11 0 -5 -13 -10
-29 -10 -36 0 -59 -25 -44 -48 7 -11 26 -18 57 -19 l46 -2 0 40 c0 58 -14 79
-54 79 -19 0 -39 -7 -46 -15z m70 -64 c0 -9 -24 -21 -41 -21 -5 0 -9 7 -9 15
0 9 9 15 25 15 14 0 25 -4 25 -9z"/>
<path d="M4846 995 c-9 -9 -16 -29 -16 -45 0 -63 79 -83 110 -27 13 24 13 30
0 55 -19 33 -69 42 -94 17z m68 -27 c13 -21 -2 -51 -27 -56 -23 -5 -40 33 -27
59 13 23 38 22 54 -3z"/>
<path d="M4980 948 c0 -32 4 -58 10 -58 6 0 10 17 10 38 0 59 37 84 57 40 10
-21 12 -21 18 -5 11 27 -12 46 -56 44 l-39 -1 0 -58z"/>
<path d="M5122 998 c-17 -17 -15 -73 3 -88 8 -7 26 -10 40 -8 17 4 25 1 25 -9
0 -20 -25 -26 -50 -13 -26 14 -37 6 -20 -15 16 -20 64 -19 84 1 11 11 16 34
16 78 l0 62 -43 2 c-24 1 -49 -4 -55 -10z m63 -43 c0 -23 -5 -30 -19 -30 -28
0 -43 29 -26 50 21 25 45 14 45 -20z"/>
<path d="M5260 994 c-8 -8 -13 -28 -13 -44 0 -16 5 -36 13 -44 16 -20 74 -21
90 -1 18 22 4 31 -25 15 -20 -11 -27 -11 -40 0 -26 21 -17 30 30 30 37 0 45 3
45 18 0 10 -5 23 -12 30 -17 17 -73 15 -88 -4z m70 -14 c0 -5 -11 -10 -25 -10
-14 0 -25 5 -25 10 0 6 11 10 25 10 14 0 25 -4 25 -10z"/>
<path d="M2830 960 c0 -5 16 -10 36 -10 21 0 33 4 29 10 -3 6 -19 10 -36 10
-16 0 -29 -4 -29 -10z"/>
<path d="M4320 960 c0 -5 16 -10 36 -10 21 0 33 4 29 10 -3 6 -19 10 -36 10
-16 0 -29 -4 -29 -10z"/>
<path d="M6085 960 c-4 -6 5 -10 19 -10 14 0 29 0 33 -1 4 0 9 4 11 10 5 14
-55 15 -63 1z"/>
<path d="M667 774 c-8 -8 1 -24 14 -24 5 0 9 7 9 15 0 15 -12 20 -23 9z"/>
<path d="M3930 766 c0 -9 7 -16 16 -16 17 0 14 22 -4 28 -7 2 -12 -3 -12 -12z"/>
<path d="M5157 774 c-8 -8 1 -24 14 -24 5 0 9 7 9 15 0 15 -12 20 -23 9z"/>
<path d="M5437 773 c-12 -11 -8 -23 8 -23 8 0 15 7 15 15 0 16 -12 20 -23 8z"/>
<path d="M5597 773 c-12 -11 -8 -23 8 -23 8 0 15 7 15 15 0 16 -12 20 -23 8z"/>
<path d="M1060 760 c0 -5 5 -10 10 -10 7 0 10 -22 8 -57 -2 -42 -7 -58 -17
-58 -8 0 -16 -6 -18 -12 -4 -10 11 -13 52 -13 41 0 56 3 53 13 -3 6 -11 12
-19 12 -10 0 -15 17 -17 68 -3 64 -4 67 -27 67 -14 0 -25 -4 -25 -10z"/>
<path d="M1190 760 c0 -5 7 -10 15 -10 13 0 15 -11 13 -57 -2 -42 -7 -58 -17
-58 -8 0 -16 -6 -18 -12 -4 -10 11 -13 52 -13 41 0 55 3 52 13 -2 6 -11 11
-21 9 -14 -2 -16 8 -16 68 l0 70 -30 0 c-16 0 -30 -4 -30 -10z"/>
<path d="M2940 690 c0 -47 4 -80 10 -80 6 0 10 11 10 24 0 26 21 47 28 28 7
-22 40 -57 47 -50 4 4 -2 23 -13 41 l-20 35 21 21 c20 20 20 21 2 21 -10 0
-29 -10 -42 -22 l-23 -21 0 41 c0 23 -4 42 -10 42 -6 0 -10 -33 -10 -80z"/>
<path d="M3830 747 c0 -18 -5 -22 -32 -22 -24 0 -36 -6 -47 -27 -14 -25 -14
-31 -1 -55 14 -24 22 -28 63 -29 l47 -1 0 79 c0 63 -3 78 -15 78 -9 0 -15 -9
-15 -23z m-2 -73 c2 -22 -2 -33 -14 -38 -22 -8 -44 11 -44 39 0 28 9 37 35 33
14 -2 21 -12 23 -34z"/>
<path d="M4710 761 c0 -6 7 -11 15 -11 13 0 15 -11 13 -57 -2 -42 -7 -58 -17
-58 -8 0 -16 -6 -19 -13 -3 -10 9 -12 49 -10 30 2 53 7 51 13 -1 5 -9 10 -18
10 -14 0 -17 12 -18 65 -1 63 -2 65 -28 68 -16 2 -28 -1 -28 -7z"/>
<path d="M63 688 c1 -47 6 -73 15 -75 8 -3 12 7 12 31 0 33 2 36 29 36 26 0
30 -4 33 -32 2 -17 9 -33 16 -36 9 -3 12 16 12 72 0 61 -3 76 -15 76 -10 0
-15 -10 -15 -31 0 -27 -3 -30 -27 -27 -22 2 -29 9 -31 31 -2 15 -9 27 -17 27
-10 0 -13 -18 -12 -72z"/>
<path d="M482 688 c2 -46 7 -73 16 -76 8 -2 12 8 12 32 0 33 2 36 30 36 28 0
30 -3 30 -36 0 -24 4 -34 13 -32 8 3 13 30 15 76 2 60 0 72 -13 72 -10 0 -15
-10 -15 -30 0 -27 -3 -30 -30 -30 -27 0 -30 3 -30 30 0 20 -5 30 -15 30 -13 0
-15 -12 -13 -72z"/>
<path d="M760 684 c0 -56 3 -75 13 -72 6 3 13 19 15 37 3 28 6 32 30 29 22 -2
28 -9 30 -36 2 -18 8 -32 13 -30 6 2 10 7 10 11 -1 4 -1 36 -1 72 0 64 -16 91
-22 38 -2 -22 -9 -29 -30 -31 -25 -3 -28 0 -28 27 0 21 -5 31 -15 31 -12 0
-15 -15 -15 -76z"/>
<path d="M2102 688 c2 -46 7 -73 16 -76 8 -2 12 8 12 32 0 33 2 36 30 36 28 0
30 -3 30 -36 0 -24 4 -34 13 -32 8 3 13 30 15 76 2 60 0 72 -13 72 -10 0 -15
-10 -15 -30 0 -27 -3 -30 -30 -30 -27 0 -30 3 -30 30 0 20 -5 30 -15 30 -13 0
-15 -12 -13 -72z"/>
<path d="M2678 739 c-22 -23 -22 -29 -3 -29 11 0 15 -11 15 -39 0 -21 6 -44
14 -51 17 -13 63 -10 58 5 -2 6 -9 9 -14 7 -18 -5 -38 19 -38 45 0 16 7 27 20
30 23 6 27 23 5 23 -9 0 -18 7 -21 15 -8 19 -15 18 -36 -6z"/>
<path d="M3472 688 c2 -46 7 -73 16 -76 8 -2 12 7 12 27 0 41 24 41 45 1 9
-16 20 -30 25 -30 16 0 12 32 -6 52 -16 16 -16 18 0 24 21 8 21 60 0 68 -9 3
-33 6 -55 6 l-40 0 3 -72z m81 38 c7 -19 -1 -26 -30 -26 -16 0 -23 6 -23 20 0
14 7 20 24 20 13 0 26 -6 29 -14z"/>
<path d="M4410 750 c0 -5 11 -10 25 -10 24 0 25 -2 25 -66 0 -48 3 -65 13 -62
7 3 13 28 15 66 3 54 6 62 22 62 11 0 20 5 20 10 0 6 -27 10 -60 10 -33 0 -60
-4 -60 -10z"/>
<path d="M2554 729 c-24 -9 -39 -27 -30 -36 4 -4 12 -1 18 5 14 14 58 16 58 3
0 -5 -13 -12 -29 -16 -74 -16 -64 -69 13 -71 l46 -1 0 47 c0 60 -30 87 -76 69z
m46 -78 c0 -12 -29 -23 -41 -15 -18 10 -9 24 16 24 14 0 25 -4 25 -9z"/>
<path d="M3108 728 c-16 -6 -28 -16 -28 -24 0 -17 12 -18 27 -3 12 12 46 9 47
-5 1 -5 -10 -11 -24 -13 -72 -11 -62 -68 11 -68 l44 0 -1 42 c-1 24 -4 49 -7
57 -7 19 -37 24 -69 14z m41 -84 c-6 -8 -18 -14 -25 -14 -20 0 -17 28 4 33 25
5 35 -3 21 -19z"/>
<path d="M3643 729 c-24 -9 -38 -27 -29 -36 4 -4 12 -1 18 5 16 16 61 16 56 0
-2 -6 -15 -13 -28 -15 -72 -11 -62 -69 11 -67 43 1 44 1 47 37 5 62 -26 94
-75 76z m37 -89 c-18 -11 -32 -8 -37 7 -5 14 29 23 42 11 6 -6 5 -12 -5 -18z"/>
<path d="M5703 729 c-24 -9 -38 -27 -29 -36 4 -4 12 -1 18 5 16 16 61 16 56 0
-2 -6 -15 -13 -28 -15 -72 -11 -62 -69 11 -67 43 1 44 1 47 37 5 62 -26 94
-75 76z m47 -78 c0 -12 -29 -23 -41 -15 -18 10 -9 24 16 24 14 0 25 -4 25 -9z"/>
<path d="M216 708 c-9 -12 -16 -30 -16 -40 0 -25 36 -58 63 -58 13 0 32 9 42
20 20 22 6 27 -24 8 -15 -9 -23 -9 -35 1 -27 22 -18 31 29 31 37 0 45 3 45 18
0 45 -76 60 -104 20z m74 -8 c0 -5 -11 -10 -25 -10 -14 0 -25 5 -25 10 0 6 11
10 25 10 14 0 25 -4 25 -10z"/>
<path d="M365 675 c21 -49 22 -56 9 -70 -9 -8 -20 -15 -25 -15 -5 0 -9 -4 -9
-10 0 -16 36 -11 52 8 8 9 26 45 41 80 20 47 23 62 12 62 -7 0 -19 -16 -26
-35 -7 -19 -16 -35 -19 -35 -3 0 -12 16 -19 35 -7 19 -19 35 -27 35 -11 0 -8
-12 11 -55z"/>
<path d="M640 721 c0 -5 7 -12 16 -15 24 -9 15 -71 -11 -71 -43 0 -12 -20 36
-23 39 -2 50 0 47 10 -3 7 -11 13 -19 13 -10 0 -15 15 -17 48 -3 42 -5 47 -28
47 -13 0 -24 -4 -24 -9z"/>
<path d="M912 718 c-18 -18 -14 -73 6 -91 23 -21 52 -22 78 -3 27 20 9 32 -22
15 -23 -12 -27 -12 -41 6 -13 19 -12 20 31 23 36 2 46 7 46 21 0 9 -5 22 -12
29 -16 16 -70 16 -86 0z m68 -18 c0 -5 -11 -10 -25 -10 -14 0 -25 5 -25 10 0
6 11 10 25 10 14 0 25 -4 25 -10z"/>
<path d="M1326 708 c-21 -30 -20 -54 4 -78 54 -54 126 12 90 81 -15 28 -74 26
-94 -3z m74 -18 c20 -38 -19 -77 -48 -48 -13 13 -16 50 -5 61 13 14 43 6 53
-13z"/>
<path d="M2250 668 c0 -42 4 -58 12 -56 6 2 12 21 12 42 1 47 29 72 50 44 18
-25 28 -22 24 5 -3 19 -9 22 -50 23 l-48 1 0 -59z"/>
<path d="M2380 726 c0 -21 46 -116 56 -116 13 0 38 48 50 97 9 33 -14 29 -27
-4 -5 -16 -12 -35 -15 -43 -4 -10 -12 0 -22 28 -9 23 -22 42 -29 42 -7 0 -13
-2 -13 -4z"/>
<path d="M2811 712 c-12 -23 -2 -34 42 -51 16 -6 25 -15 22 -21 -9 -15 -31
-12 -45 5 -7 8 -17 12 -22 9 -15 -9 23 -44 48 -44 22 0 54 23 54 39 0 13 -23
29 -53 36 -15 4 -27 11 -27 16 0 13 44 11 59 -3 10 -11 12 -9 9 7 -5 29 -72
34 -87 7z"/>
<path d="M3900 720 c0 -5 7 -10 16 -10 12 0 14 -9 12 -37 -2 -25 -8 -38 -17
-38 -8 0 -16 -6 -19 -13 -3 -10 8 -12 47 -10 28 2 51 8 50 13 0 6 -7 9 -15 7
-11 -2 -14 9 -14 48 0 49 -1 50 -30 50 -16 0 -30 -4 -30 -10z"/>
<path d="M4036 714 c-35 -34 -6 -104 43 -104 50 0 76 53 51 101 -13 24 -72 26
-94 3z m72 -40 c2 -22 -2 -33 -14 -38 -22 -8 -44 11 -44 39 0 28 9 37 35 33
14 -2 21 -12 23 -34z"/>
<path d="M4565 706 c-40 -60 32 -125 91 -82 26 20 10 32 -21 16 -20 -11 -27
-11 -40 0 -26 21 -17 30 30 30 37 0 45 3 45 18 0 47 -78 60 -105 18z m75 -6
c0 -5 -11 -10 -25 -10 -14 0 -25 5 -25 10 0 6 11 10 25 10 14 0 25 -4 25 -10z"/>
<path d="M4847 712 c-34 -38 -5 -102 46 -102 13 0 32 9 42 20 20 22 6 27 -24
8 -15 -9 -23 -9 -35 1 -27 22 -18 31 29 31 46 0 53 7 35 41 -14 25 -71 26 -93
1z m73 -12 c0 -5 -11 -10 -25 -10 -14 0 -25 5 -25 10 0 6 11 10 25 10 14 0 25
-4 25 -10z"/>
<path d="M4991 678 c24 -62 35 -76 48 -62 5 5 19 33 30 62 17 42 18 52 6 52
-8 0 -19 -17 -26 -40 -7 -22 -15 -40 -19 -40 -4 0 -12 18 -19 40 -7 23 -18 40
-26 40 -12 0 -11 -10 6 -52z"/>
<path d="M5130 720 c0 -5 7 -10 16 -10 12 0 14 -9 12 -37 -2 -30 -7 -38 -23
-38 -43 0 -12 -20 36 -23 39 -2 50 0 47 10 -3 7 -11 13 -19 13 -10 0 -15 15
-17 48 -3 42 -5 47 -28 47 -13 0 -24 -4 -24 -10z"/>
<path d="M5260 720 c0 -5 14 -10 31 -10 l31 0 -31 -39 c-17 -21 -31 -44 -31
-50 0 -7 20 -11 51 -11 36 0 49 4 46 13 -2 7 -15 11 -30 9 -34 -4 -34 2 3 48
17 21 30 41 30 44 0 3 -22 6 -50 6 -27 0 -50 -4 -50 -10z"/>
<path d="M5410 720 c0 -5 5 -10 10 -10 6 0 10 -18 10 -40 0 -28 -4 -40 -13
-38 -7 2 -14 -1 -15 -7 -1 -5 21 -11 49 -13 39 -2 50 0 47 10 -3 7 -11 13 -19
13 -10 0 -15 15 -17 48 -3 42 -5 47 -28 47 -13 0 -24 -4 -24 -10z"/>
<path d="M5570 720 c0 -5 5 -10 10 -10 6 0 10 -24 10 -54 0 -52 -1 -55 -27
-58 -35 -4 -36 -22 -2 -26 43 -5 59 21 59 94 0 62 -1 64 -25 64 -14 0 -25 -4
-25 -10z"/>
<path d="M1730 680 c0 -5 16 -10 35 -10 19 0 35 5 35 10 0 6 -16 10 -35 10
-19 0 -35 -4 -35 -10z"/>
<path d="M6080 680 c0 -5 16 -10 35 -10 19 0 35 5 35 10 0 6 -16 10 -35 10
-19 0 -35 -4 -35 -10z"/>
<path d="M3455 491 c-7 -12 12 -24 25 -16 11 7 4 25 -10 25 -5 0 -11 -4 -15
-9z"/>
<path d="M4157 494 c-8 -8 1 -24 14 -24 5 0 9 7 9 15 0 15 -12 20 -23 9z"/>
<path d="M5410 485 c0 -8 7 -15 15 -15 8 0 15 7 15 15 0 8 -7 15 -15 15 -8 0
-15 -7 -15 -15z"/>
<path d="M72 413 c2 -46 7 -77 13 -75 6 1 10 10 11 20 3 54 10 55 42 7 22 -34
42 -46 42 -24 0 5 -11 26 -25 47 -25 36 -25 36 -5 57 21 22 26 45 11 45 -5 0
-21 -13 -34 -30 -32 -37 -39 -38 -35 -4 2 15 -3 29 -10 31 -10 4 -12 -13 -10
-74z"/>
<path d="M620 416 c0 -69 14 -108 25 -72 17 53 15 52 41 18 33 -42 49 -32 22
14 -19 32 -19 36 -4 53 35 38 11 43 -28 5 l-26 -27 0 42 c0 30 -4 41 -15 41
-12 0 -15 -15 -15 -74z"/>
<path d="M914 477 c-3 -8 -4 -43 -2 -78 l3 -64 48 0 c56 0 68 19 15 23 l-38 3
0 59 c0 56 -14 87 -26 57z"/>
<path d="M1407 484 c-3 -3 -3 -13 0 -21 5 -13 1 -15 -19 -10 -56 14 -93 -59
-53 -103 12 -13 27 -18 54 -16 l36 4 3 76 c3 68 -3 88 -21 70z m-2 -73 c12
-40 -22 -72 -50 -45 -17 17 -18 25 -9 48 9 22 51 20 59 -3z"/>
<path d="M1894 477 c-3 -8 -4 -43 -2 -78 l3 -64 44 0 c27 0 46 5 49 13 2 8 -8
12 -32 12 l-36 0 0 59 c0 57 -14 88 -26 58z"/>
<path d="M3004 476 c-3 -7 -4 -42 -2 -77 l3 -64 49 0 c31 0 51 5 54 13 2 8 -9
12 -37 12 l-41 0 0 65 c0 60 -13 86 -26 51z"/>
<path d="M3702 478 c-15 -15 -16 -148 -2 -148 6 0 10 18 10 40 0 22 5 40 10
40 6 0 10 -10 10 -23 0 -13 6 -32 14 -43 14 -18 15 -18 21 11 15 67 19 71 25
25 3 -25 9 -43 15 -40 12 6 7 132 -7 145 -13 13 -38 -21 -38 -52 0 -13 -4 -23
-10 -23 -5 0 -10 13 -10 29 0 35 -21 56 -38 39z"/>
<path d="M4060 469 c0 -16 -4 -19 -20 -14 -34 11 -70 -20 -70 -59 0 -42 21
-60 71 -61 l39 -1 0 78 c0 45 -4 78 -10 78 -5 0 -10 -9 -10 -21z m-2 -71 c5
-39 -31 -57 -52 -26 -20 28 -4 61 27 56 15 -2 23 -11 25 -30z"/>
<path d="M4817 483 c-3 -4 -6 -38 -8 -75 -4 -76 13 -99 21 -28 l6 45 9 -43
c12 -54 26 -56 41 -5 l12 38 3 -40 c2 -22 9 -40 14 -40 14 0 18 96 5 129 -11
30 -33 30 -38 0 -1 -10 -5 -30 -9 -44 -5 -22 -7 -20 -17 19 -10 42 -28 62 -39
44z"/>
<path d="M5110 480 c0 -5 5 -10 10 -10 6 0 10 -25 10 -55 0 -49 -2 -55 -21
-55 -12 0 -19 -5 -16 -12 2 -8 22 -13 52 -13 30 0 50 5 53 13 2 7 -5 12 -17
12 -19 0 -21 6 -21 65 0 63 -1 65 -25 65 -14 0 -25 -4 -25 -10z"/>
<path d="M5248 459 c-22 -23 -22 -29 -3 -29 11 0 15 -11 15 -40 0 -33 4 -42
24 -52 27 -12 65 -3 50 11 -5 5 -18 11 -29 13 -14 2 -21 12 -23 34 -2 25 1 33
20 38 l23 7 -22 9 c-13 5 -23 14 -23 20 0 15 -13 11 -32 -11z"/>
<path d="M228 449 c-10 -5 -18 -17 -18 -25 0 -13 3 -12 24 1 23 15 56 12 56
-6 0 -5 -9 -9 -21 -9 -31 0 -59 -18 -59 -39 0 -27 21 -40 63 -38 l37 2 0 52
c0 41 -4 54 -19 63 -24 12 -41 12 -63 -1z m57 -68 c3 -6 -3 -15 -14 -21 -21
-11 -37 2 -26 20 8 13 32 13 40 1z"/>
<path d="M347 454 c-3 -3 5 -30 17 -59 25 -55 24 -67 -8 -79 -14 -5 -16 -10
-8 -18 20 -20 52 13 82 84 17 41 25 70 19 74 -5 3 -17 -13 -27 -35 -20 -49
-28 -51 -37 -12 -7 31 -27 55 -38 45z"/>
<path d="M502 444 c-31 -21 -17 -38 14 -17 23 15 26 15 42 0 15 -16 15 -17 -7
-17 -33 0 -61 -18 -61 -40 0 -25 17 -35 63 -36 l37 0 0 53 c0 41 -4 54 -19 63
-27 14 -43 13 -69 -6z m63 -63 c9 -15 -28 -31 -46 -20 -12 8 -12 10 1 19 19
12 37 13 45 1z"/>
<path d="M1062 444 c-30 -21 -18 -38 13 -18 13 9 29 13 35 9 18 -11 11 -22
-19 -28 -70 -14 -54 -79 17 -73 36 3 37 5 40 46 5 68 -36 99 -86 64z m58 -68
c0 -18 -31 -29 -44 -16 -8 8 -7 14 4 20 22 14 40 12 40 -4z"/>
<path d="M1226 451 c-3 -5 -15 -7 -27 -4 -19 5 -20 2 -17 -51 4 -68 21 -78 28
-16 4 37 9 46 27 48 20 3 22 -2 25 -45 4 -63 22 -62 26 2 3 38 -1 52 -14 62
-21 15 -41 17 -48 4z"/>
<path d="M2042 444 c-32 -22 -30 -78 3 -100 28 -18 72 -12 82 12 9 23 -3 27
-30 9 -23 -15 -26 -15 -43 2 -17 17 -16 18 29 21 38 3 47 7 47 22 0 23 -26 50
-48 50 -10 0 -28 -7 -40 -16z m58 -25 c0 -5 -11 -9 -25 -9 -26 0 -34 15 -12
23 16 5 37 -3 37 -14z"/>
<path d="M2187 453 c-27 -4 -28 -6 -25 -59 4 -67 21 -75 28 -14 4 37 9 46 27
48 20 3 22 -2 25 -45 4 -60 22 -63 26 -4 3 43 -18 83 -42 80 -6 -1 -24 -4 -39
-6z"/>
<path d="M2460 442 c-28 -23 -21 -37 26 -57 20 -8 33 -19 29 -25 -9 -15 -26
-12 -47 7 -25 22 -36 8 -13 -17 23 -26 57 -25 81 1 19 21 18 21 -5 40 -13 10
-32 19 -42 19 -10 0 -19 4 -19 9 0 17 19 22 41 11 27 -15 39 -2 15 16 -26 19
-39 18 -66 -4z"/>
<path d="M3308 453 c-28 -4 -28 -5 -28 -79 0 -43 4 -74 10 -74 6 0 10 9 10 20
0 17 4 19 25 14 57 -14 92 76 43 110 -12 9 -25 15 -28 15 -3 -1 -17 -4 -32 -6z
m52 -42 c13 -25 13 -27 -6 -45 -12 -12 -20 -13 -35 -6 -18 10 -26 50 -12 63
13 14 43 7 53 -12z"/>
<path d="M3850 440 c-11 -11 -20 -31 -20 -45 0 -29 32 -65 58 -65 23 0 64 29
57 41 -4 5 -17 2 -31 -7 -19 -13 -27 -14 -39 -4 -24 20 -17 29 27 32 48 4 58
18 29 47 -26 26 -55 27 -81 1z m70 -21 c0 -5 -11 -9 -25 -9 -26 0 -34 15 -12
23 16 5 37 -3 37 -14z"/>
<path d="M4272 444 c-12 -8 -20 -20 -16 -25 4 -6 13 -4 25 7 10 9 25 14 34 11
21 -9 19 -27 -3 -27 -20 0 -62 -27 -62 -40 0 -22 32 -39 68 -36 36 4 37 4 40
49 3 38 -1 48 -20 61 -28 20 -38 20 -66 0z m58 -63 c0 -5 -7 -14 -15 -21 -18
-15 -42 1 -31 19 8 13 46 15 46 2z"/>
<path d="M5530 442 c-28 -23 -21 -37 26 -57 20 -8 33 -19 29 -25 -9 -15 -26
-12 -47 7 -25 22 -36 8 -13 -17 23 -26 57 -25 81 1 19 21 18 21 -5 40 -13 10
-32 19 -42 19 -10 0 -19 4 -19 9 0 17 19 22 41 11 27 -15 39 -2 15 16 -26 19
-39 18 -66 -4z"/>
<path d="M5808 453 c-28 -4 -28 -5 -28 -79 0 -59 3 -74 15 -74 8 0 15 9 15 21
0 16 4 19 20 14 32 -10 70 20 70 55 0 31 -31 71 -52 69 -7 -1 -25 -4 -40 -6z
m60 -51 c5 -33 -15 -54 -39 -41 -19 9 -26 49 -12 63 15 15 48 1 51 -22z"/>
<path d="M5957 453 c-27 -4 -28 -6 -25 -59 3 -57 22 -71 24 -18 1 17 4 36 8
43 11 17 34 13 45 -6 7 -13 13 -15 20 -8 13 13 -13 56 -32 54 -7 -1 -25 -4
-40 -6z"/>
<path d="M6082 444 c-46 -32 -17 -114 40 -114 24 0 58 35 58 60 0 23 -42 70
-62 70 -8 0 -24 -7 -36 -16z m66 -46 c4 -35 -29 -56 -52 -32 -18 17 -19 24
-10 49 4 10 16 15 33 13 20 -2 27 -9 29 -30z"/>
<path d="M2300 401 c0 -58 13 -72 66 -67 l39 4 3 56 c2 45 0 56 -13 56 -11 0
-15 -11 -15 -40 0 -28 -5 -42 -18 -49 -27 -14 -42 5 -42 51 0 21 -4 38 -10 38
-5 0 -10 -22 -10 -49z"/>
<path d="M3140 401 c0 -29 6 -53 14 -60 14 -12 77 -11 86 1 3 3 3 29 2 57 -4
56 -22 71 -22 19 0 -42 -12 -61 -36 -56 -14 2 -20 13 -22 46 -4 58 -22 53 -22
-7z"/>
<path d="M3430 440 c0 -5 7 -10 15 -10 10 0 15 -11 15 -35 0 -28 -4 -35 -20
-35 -11 0 -20 -7 -20 -15 0 -11 12 -15 50 -15 38 0 50 4 50 15 0 8 -9 15 -20
15 -17 0 -20 7 -20 45 0 41 -2 45 -25 45 -14 0 -25 -4 -25 -10z"/>
<path d="M4130 441 c0 -5 5 -11 12 -13 6 -2 12 -17 13 -32 0 -21 -5 -30 -24
-37 -36 -14 -12 -31 39 -27 44 3 71 28 31 28 -18 0 -21 6 -21 45 0 41 -2 45
-25 45 -14 0 -25 -4 -25 -9z"/>
<path d="M4950 406 c0 -57 18 -76 68 -72 l37 4 3 56 c2 44 0 56 -12 56 -10 0
-16 -13 -18 -42 -2 -36 -7 -44 -25 -46 -21 -3 -23 1 -23 42 0 34 -4 46 -15 46
-11 0 -15 -12 -15 -44z"/>
<path d="M5393 436 c10 -8 17 -26 17 -45 0 -25 -4 -31 -21 -31 -40 0 -13 -25
31 -28 48 -4 80 15 42 24 -18 5 -22 13 -22 50 0 43 -1 44 -32 44 -30 -1 -31
-2 -15 -14z"/>
<path d="M1620 400 c0 -5 16 -10 35 -10 19 0 35 5 35 10 0 6 -16 10 -35 10
-19 0 -35 -4 -35 -10z"/>
<path d="M2740 400 c0 -5 16 -10 35 -10 19 0 35 5 35 10 0 6 -16 10 -35 10
-19 0 -35 -4 -35 -10z"/>
<path d="M4550 400 c0 -5 16 -10 35 -10 19 0 35 5 35 10 0 6 -16 10 -35 10
-19 0 -35 -4 -35 -10z"/>
<path d="M5684 359 c-10 -17 13 -36 27 -22 12 12 4 33 -11 33 -5 0 -12 -5 -16
-11z"/>
<path d="M490 141 l0 -79 33 -5 c46 -7 77 15 77 57 0 42 -29 71 -65 62 -22 -6
-25 -3 -25 19 0 14 -4 25 -10 25 -6 0 -10 -33 -10 -79z m85 -11 c9 -27 -5 -50
-30 -50 -34 0 -46 38 -20 64 18 18 42 11 50 -14z"/>
<path d="M1060 206 c0 -9 6 -16 14 -16 10 0 13 -13 12 -52 -2 -46 -5 -53 -24
-56 -44 -7 -20 -22 33 -22 30 0 55 5 55 10 0 6 -9 10 -20 10 -17 0 -19 8 -22
68 -3 61 -5 67 -25 70 -16 2 -23 -2 -23 -12z"/>
<path d="M1242 208 c6 -18 28 -21 28 -4 0 9 -7 16 -16 16 -9 0 -14 -5 -12 -12z"/>
<path d="M1362 209 c2 -6 8 -10 13 -10 5 0 11 4 13 10 2 6 -4 11 -13 11 -9 0
-15 -5 -13 -11z"/>
<path d="M1642 209 c2 -6 8 -10 13 -10 5 0 11 4 13 10 2 6 -4 11 -13 11 -9 0
-15 -5 -13 -11z"/>
<path d="M2620 205 c0 -9 5 -15 11 -13 6 2 11 8 11 13 0 5 -5 11 -11 13 -6 2
-11 -4 -11 -13z"/>
<path d="M3592 209 c2 -6 8 -10 13 -10 5 0 11 4 13 10 2 6 -4 11 -13 11 -9 0
-15 -5 -13 -11z"/>
<path d="M3752 209 c2 -6 8 -10 13 -10 5 0 11 4 13 10 2 6 -4 11 -13 11 -9 0
-15 -5 -13 -11z"/>
<path d="M4946 213 c-3 -3 -6 -39 -6 -80 0 -58 3 -73 15 -73 9 0 15 9 15 25 0
32 23 32 38 0 6 -14 19 -25 28 -25 14 0 13 5 -5 36 -21 35 -21 38 -5 55 26 29
8 36 -26 10 l-30 -22 0 35 c0 34 -11 52 -24 39z"/>
<path d="M360 190 c-45 -45 -4 -151 53 -135 55 16 74 81 36 129 -25 31 -61 34
-89 6z m76 -35 c8 -32 2 -56 -18 -68 -38 -25 -67 52 -33 87 20 19 44 10 51
-19z"/>
<path d="M1885 199 c-4 -6 2 -13 14 -16 18 -4 21 -13 21 -53 0 -40 -3 -49 -22
-55 -21 -7 -20 -8 10 -12 18 -2 45 -2 60 0 26 4 26 4 5 12 -20 6 -23 14 -23
55 0 40 3 49 21 53 35 9 11 27 -36 27 -24 0 -47 -5 -50 -11z"/>
<path d="M2860 136 l0 -76 55 0 c30 0 55 5 55 10 0 6 -18 10 -40 10 -33 0 -40
3 -40 20 0 15 7 20 25 20 16 0 25 6 25 15 0 9 -9 15 -25 15 -42 0 -31 28 13
32 55 5 45 23 -15 26 l-53 3 0 -75z"/>
<path d="M4110 136 c0 -61 3 -76 15 -76 10 0 15 10 15 30 0 27 3 30 31 30 27
0 30 -3 27 -27 -2 -15 2 -28 10 -30 9 -4 12 15 12 72 0 57 -3 76 -12 72 -8 -2
-12 -15 -10 -30 3 -24 0 -27 -27 -27 -25 0 -30 4 -33 27 -2 14 -9 28 -15 31
-10 3 -13 -16 -13 -72z"/>
<path d="M4693 190 c-24 -19 -30 -40 -13 -40 6 0 10 -12 10 -26 0 -42 18 -64
50 -64 17 0 30 5 30 10 0 6 -11 10 -25 10 -22 0 -25 4 -25 34 0 26 5 35 21 39
22 6 18 27 -6 27 -7 0 -15 6 -17 14 -2 12 -7 11 -25 -4z"/>
<path d="M5650 134 c0 -56 3 -75 12 -72 7 3 13 13 13 23 0 13 10 21 31 25 44
9 54 18 54 45 0 30 -35 55 -77 55 l-33 0 0 -76z m78 24 c-2 -17 -10 -23 -28
-23 -18 0 -26 6 -28 23 -3 19 1 22 28 22 27 0 31 -3 28 -22z"/>
<path d="M630 118 c0 -32 4 -58 10 -58 6 0 10 14 10 32 0 36 25 69 46 61 9 -3
14 -21 14 -49 0 -32 4 -44 15 -44 11 0 15 11 15 43 0 54 -21 76 -72 74 l-38
-1 0 -58z"/>
<path d="M780 160 c-41 -41 -16 -103 40 -103 58 0 84 75 38 107 -30 21 -54 20
-78 -4z m58 -9 c8 -5 12 -21 10 -37 -2 -23 -8 -29 -28 -29 -18 0 -26 6 -28 23
-3 22 13 52 27 52 3 0 12 -4 19 -9z"/>
<path d="M908 175 c-11 -12 35 -115 51 -115 18 0 65 106 51 115 -11 7 -27 -15
-35 -48 -9 -35 -22 -34 -30 2 -6 30 -27 55 -37 46z"/>
<path d="M1220 166 c0 -9 5 -16 10 -16 6 0 10 -25 10 -55 0 -54 0 -55 -30 -55
-16 0 -30 -4 -30 -10 0 -15 66 -12 79 4 7 9 11 40 9 78 -3 57 -5 63 -25 66
-16 2 -23 -2 -23 -12z"/>
<path d="M1340 166 c0 -9 5 -16 10 -16 6 0 10 -16 10 -35 0 -28 -4 -35 -20
-35 -11 0 -20 -4 -20 -10 0 -5 25 -10 55 -10 30 0 55 5 55 10 0 6 -9 10 -19
10 -17 0 -20 8 -23 48 -3 40 -6 47 -25 50 -16 2 -23 -2 -23 -12z"/>
<path d="M1463 158 c13 -51 38 -98 52 -98 14 0 39 47 52 98 11 44 -20 19 -35
-28 l-15 -44 -17 44 c-19 48 -47 70 -37 28z"/>
<path d="M1615 171 c-3 -6 1 -14 9 -17 10 -4 16 -19 16 -40 0 -27 -4 -34 -20
-34 -11 0 -20 -4 -20 -10 0 -5 25 -10 55 -10 30 0 55 5 55 10 0 6 -9 10 -19
10 -17 0 -20 8 -23 48 -3 39 -6 47 -25 50 -11 2 -24 -2 -28 -7z"/>
<path d="M2030 165 c0 -10 10 -15 32 -15 l32 0 -37 -38 c-20 -21 -37 -41 -37
-45 0 -4 25 -7 56 -7 34 0 53 4 49 10 -3 6 -20 10 -37 10 l-30 0 36 40 c20 23
34 45 31 50 -4 6 -26 10 -51 10 -32 0 -44 -4 -44 -15z"/>
<path d="M2164 154 c15 -59 35 -96 52 -92 14 3 54 86 54 111 0 24 -27 -5 -41
-43 l-16 -44 -15 44 c-16 50 -45 71 -34 24z"/>
<path d="M2309 159 c-27 -27 -21 -67 14 -93 26 -19 30 -19 55 -5 19 10 28 24
30 48 6 62 -55 94 -99 50z m65 -15 c19 -19 20 -25 3 -48 -18 -24 -51 -17 -55
12 -3 23 13 52 29 52 4 0 15 -7 23 -16z"/>
<path d="M2444 171 c-2 -2 -4 -28 -4 -58 0 -40 4 -53 15 -53 11 0 15 11 15 39
0 39 20 68 40 56 5 -3 10 -13 10 -21 0 -16 22 -15 27 2 7 22 -18 38 -57 39
-23 0 -43 -1 -46 -4z"/>
<path d="M2595 170 c-3 -6 1 -13 9 -16 10 -4 16 -19 16 -40 0 -27 -4 -34 -20
-34 -11 0 -20 -4 -20 -10 0 -5 23 -10 50 -10 28 0 50 5 50 10 0 6 -9 10 -20
10 -17 0 -20 7 -20 50 0 43 -3 50 -19 50 -11 0 -23 -5 -26 -10z"/>
<path d="M3000 118 c0 -32 4 -58 10 -58 6 0 10 15 10 34 0 38 23 68 45 60 10
-4 15 -21 15 -50 0 -32 4 -44 15 -44 20 0 20 68 0 97 -12 17 -25 22 -55 20
l-40 -1 0 -58z"/>
<path d="M3150 160 c-40 -40 -16 -103 39 -103 32 0 71 26 58 39 -4 4 -18 2
-31 -6 -28 -15 -56 -8 -56 15 0 11 11 15 45 15 49 0 53 5 29 38 -19 28 -57 29
-84 2z m60 -10 c16 -10 13 -12 -20 -12 -33 0 -36 2 -20 12 8 5 17 10 20 10 3
0 12 -5 20 -10z"/>
<path d="M3280 117 c0 -42 3 -58 13 -54 7 2 11 16 9 31 -2 16 4 36 13 46 18
20 45 16 45 -6 0 -8 5 -14 10 -14 14 0 12 36 -2 48 -7 6 -30 10 -50 9 l-38 -1
0 -59z"/>
<path d="M3426 161 c-37 -41 2 -113 53 -96 16 5 20 3 15 -9 -7 -18 -49 -22
-59 -6 -4 6 -11 8 -16 4 -18 -11 12 -34 45 -34 46 0 56 15 56 90 l0 66 -39 1
c-26 1 -44 -4 -55 -16z m62 -13 c18 -18 15 -46 -6 -57 -33 -18 -63 27 -36 54
19 18 26 19 42 3z"/>
<path d="M3570 166 c0 -9 5 -16 10 -16 6 0 10 -16 10 -35 0 -28 -4 -35 -20
-35 -11 0 -20 -4 -20 -10 0 -5 25 -10 55 -10 30 0 55 5 55 10 0 6 -9 10 -19
10 -17 0 -20 8 -23 48 -3 40 -6 47 -25 50 -16 2 -23 -2 -23 -12z"/>
<path d="M3725 171 c-3 -6 1 -14 9 -17 12 -5 16 -20 16 -60 0 -53 0 -54 -30
-54 -16 0 -30 -4 -30 -10 0 -15 66 -12 79 4 7 9 11 40 9 78 -3 56 -5 63 -25
66 -11 2 -24 -2 -28 -7z"/>
<path d="M3845 160 c-24 -27 -22 -70 5 -92 12 -10 28 -18 35 -18 19 0 61 37
52 46 -4 4 -13 2 -19 -4 -16 -16 -55 -15 -61 2 -8 20 2 26 45 26 42 0 50 17
22 44 -21 22 -57 20 -79 -4z m62 -16 c2 -7 -6 -10 -21 -7 -14 3 -23 10 -20 15
8 12 36 6 41 -8z"/>
<path d="M4254 171 c-2 -2 -4 -28 -4 -58 0 -40 4 -53 15 -53 11 0 15 11 15 40
0 29 5 42 20 50 15 8 21 6 30 -10 6 -11 15 -20 20 -20 14 0 12 36 -3 48 -12
10 -83 12 -93 3z"/>
<path d="M4394 154 c15 -59 35 -96 52 -92 14 3 54 86 54 111 0 24 -27 -5 -41
-43 l-16 -44 -15 44 c-16 50 -45 71 -34 24z"/>
<path d="M4544 166 c-24 -18 -13 -31 14 -15 21 13 52 7 52 -11 0 -5 -9 -10
-21 -10 -31 0 -59 -19 -59 -40 0 -25 35 -44 57 -32 9 5 24 7 34 5 16 -5 19 1
19 34 0 70 -47 104 -96 69z m64 -68 c-5 -15 -48 -24 -48 -10 0 14 12 22 33 22
10 0 17 -5 15 -12z"/>
<path d="M4825 166 c-26 -18 -13 -42 32 -61 29 -12 34 -18 23 -25 -10 -6 -22
-4 -37 5 -26 18 -33 19 -33 5 0 -5 11 -17 25 -26 21 -14 31 -15 51 -5 37 16
29 53 -13 66 -18 5 -33 12 -33 16 0 15 20 20 41 9 27 -15 39 -2 15 16 -25 18
-47 18 -71 0z"/>
<path d="M5095 160 c-14 -16 -15 -20 -4 -20 8 0 20 5 26 11 13 13 43 5 43 -11
0 -5 -10 -10 -23 -10 -27 0 -47 -17 -47 -42 0 -24 28 -37 68 -31 31 5 32 7 32
54 0 38 -4 51 -19 59 -30 15 -56 12 -76 -10z m63 -62 c-5 -15 -48 -24 -48 -10
0 14 12 22 33 22 10 0 17 -5 15 -12z"/>
<path d="M5787 173 c-4 -3 -7 -24 -7 -45 0 -45 31 -84 58 -72 9 3 25 6 35 6
14 -1 17 8 17 59 0 33 -4 59 -10 59 -5 0 -10 -17 -10 -39 0 -41 -20 -67 -45
-57 -10 4 -15 19 -15 51 0 42 -7 54 -23 38z"/>
<path d="M5930 117 c0 -43 3 -58 13 -54 6 2 12 18 13 35 0 17 6 37 13 46 14
17 41 11 41 -10 0 -8 4 -14 9 -14 18 0 20 17 5 38 -11 16 -24 21 -54 19 l-40
-1 0 -59z"/>
<path d="M6075 160 c-14 -16 -15 -20 -4 -20 8 0 20 5 26 11 13 13 43 5 43 -11
0 -5 -10 -10 -23 -10 -27 0 -47 -17 -47 -42 0 -24 28 -37 68 -31 31 5 32 7 32
54 0 38 -4 51 -19 59 -30 15 -56 12 -76 -10z m63 -62 c-5 -15 -48 -24 -48 -10
0 14 12 22 33 22 10 0 17 -5 15 -12z"/>
<path d="M97 134 c-16 -16 -5 -25 26 -22 17 2 31 8 30 13 -3 12 -46 19 -56 9z"/>
<path d="M5387 134 c-12 -12 4 -24 34 -24 19 0 29 5 29 15 0 15 -50 22 -63 9z"/>
</g>
</svg>
